<svg xmlns="http://www.w3.org/2000/svg" viewBox="0 0 630 430" class="svg-logo" width="315" height="215" style="height: auto;"><rect rx="10" ry="10" width="100%" height="100%" fill="rgba(255, 255, 255, 1)"></rect><g data-element="wrapper" transform="translate(-41.40820312500517 75.24999504089152) scale(0.6500000000000095)"><g data-element="container" transform="translate(229.2858590398516 129.28571428571428) scale(0.2857142857142857)"><g><path id="fill_x5F_1_111_" fill="transparent" d="M316.524,591.648c-0.255,0-0.497-0.078-0.653-0.207l-1.665-1.411
	c-4.618-3.912-8.979-7.608-13.112-11.738c-4.517-4.576-9.03-9.435-13.391-14.421l-3.274-3.741l-5.077,4.561
	c-4.376,3.942-8.904,8.018-13.514,11.501c-5.164,3.843-10.66,7.688-16.305,11.408l-0.602,0.192c-0.324,0-0.635-0.126-0.779-0.309
	c-3.501-4.328-6.679-9.345-9.752-14.197l-1.471-2.321c-3.316-5.28-6.565-10.767-9.92-16.752l-2.387-4.259l-4.271,2.366
	c-11.612,6.433-24.176,11.576-36.052,16.293c-0.036,0.009-0.072,0.012-0.108,0.012c-0.323,0-0.743-0.273-0.958-0.758
	c-2.797-6.841-5.158-12.99-7.155-18.653l-0.461-1.303c-0.931-2.636-1.851-5.229-2.684-7.826l-3.66-14.224l-4.747,1.216
	c-12.472,3.196-25.725,6.404-38.568,7.47c-0.018,0-0.039,0.003-0.057,0.003c-0.668,0-1.132-0.371-1.195-0.749
	c-2.624-12.78-3.435-26.441-3.927-39.328l-0.186-4.9l-14.895,0.551c-2.974-0.003-6.011-0.177-9.162-0.353
	c-7.566-0.422-14.128-0.934-20.262-1.584c-0.539-0.057-0.988-0.527-0.967-0.719c1.294-14.826,2.693-27.144,5.31-39.245l1.03-4.756
	l-4.747-1.069c-7.125-1.608-13.16-3.091-18.995-4.672l-0.833-0.231c-6.092-1.683-12.394-3.42-18.051-5.715
	c-0.485-0.183-0.803-0.818-0.656-1.291c1.95-6.526,4.028-12.882,6.194-18.95c2.16-5.286,4.699-11.043,7.919-17.911l2.082-4.445
	l-5.101-2.387c-5.664-2.654-11.516-5.394-17.063-8.398c-5.412-3.181-11.097-6.727-16.746-10.453
	c-0.47-0.302-0.617-0.994-0.467-1.255c2.651-4.987,5.999-9.899,9.237-14.646l1.545-2.276c3.39-4.894,7.065-9.899,11.54-15.706
	l3.127-4.058l-4.19-2.95c-4.07-2.863-7.542-6.023-11.217-9.366l-3.37-3.046c-5.541-5.188-10.15-9.68-14.412-14.053
	c-0.165-0.177-0.314-0.518-0.326-0.821c0.003,0.036,0.009,0.054,0.021,0.054c0.045,0,0.171-0.273,0.362-0.476
	c4.211-4.316,8.821-8.809,14.445-14.074l3.393-3.067c3.648-3.319,7.092-6.454,11.133-9.345l4.163-2.977l-3.148-4.034
	c-3.783-4.846-7.673-10.123-11.564-15.679l-1.503-2.216c-3.238-4.747-6.586-9.659-9.162-14.508c-0.225-0.398-0.078-1.09,0.342-1.36
	c5.739-3.786,11.423-7.332,16.943-10.57c6.074-3.286,12.57-6.329,17.536-8.605l4.499-2.061l-2.1-4.481
	c-3.22-6.868-5.76-12.624-7.997-18.111c-2.088-5.867-4.166-12.223-6.098-18.692c-0.165-0.53,0.15-1.165,0.494-1.291
	c5.801-2.351,12.103-4.088,18.195-5.771l0.854-0.237c5.813-1.576,11.849-3.058,18.974-4.666l4.747-1.069l-1.03-4.756
	c-2.618-12.097-4.014-24.419-5.307-39.197c-0.024-0.24,0.425-0.71,0.949-0.764c6.182-0.659,12.555-1.159,20.076-1.576
	c3.351-0.189,6.388-0.362,9.542-0.362l14.715,0.452l0.186-4.864c0.494-12.864,1.306-26.5,3.891-39.071
	c0.099-0.587,0.59-0.967,1.024-0.967c13.107,1.09,26.36,4.298,38.831,7.494l4.747,1.216l3.738-14.496
	c0.755-2.324,1.674-4.918,2.606-7.554l0.461-1.303c2.007-5.688,4.367-11.834,7.212-18.788c0.183-0.407,0.677-0.686,0.836-0.686
	c12.049,4.792,24.614,9.935,36.225,16.368l4.271,2.366l2.387-4.259c3.355-5.984,6.604-11.471,9.938-16.781l1.453-2.291
	c3.073-4.852,6.251-9.869,9.674-14.098c0.222-0.282,0.536-0.407,0.86-0.407l0.599,0.189c5.691,3.753,11.187,7.601,16.335,11.432
	c4.277,3.235,8.521,7.012,12.624,10.668l5.936,5.265l3.256-3.675c4.603-5.196,8.997-9.908,13.433-14.403
	c4.109-4.106,8.473-7.802,13.092-11.714l1.68-1.426c0.141-0.117,0.38-0.192,0.644-0.192c0.293,0,0.566,0.096,0.713,0.249
	c9.479,9.36,18.009,21.172,24.862,30.664l2.857,3.959l12.127-8.665c2.049-1.363,4.265-2.651,6.487-3.948l1.549-0.904
	c6.311-3.663,12.079-6.835,17.614-9.683c0.299-0.048,0.533-0.066,0.707-0.066c0.368,0,0.497,0.078,0.53,0.138
	c7.787,14.43,13.083,25.452,17.168,35.716l1.773,4.463l4.502-1.68c11.78-4.397,24.488-8.88,37.6-11.899
	c0.006,0,0.015-0.003,0.021-0.003c0.473,0,0.97,0.329,1.096,0.764c1.848,6.233,3.531,12.531,5.155,19.282
	c1.297,6.038,2.228,12.316,3.226,19.297l0.701,4.903l4.897-0.746c7.844-1.198,13.882-1.962,19.579-2.48
	c6.766-0.311,13.292-0.47,19.738-0.47c0,0,0,0,0.003,0c0.533,0,1.027,0.47,1.048,0.788c0.587,5.822,0.461,11.95,0.338,17.878
	l-0.042,2.16c-0.129,7.218-0.554,14.185-0.91,19.45l-0.324,4.813l4.804,0.407c11.103,0.95,22.802,2.777,39.122,6.113
	c0.183,0.042,0.551,0.629,0.449,1.177c-2.585,13.154-5.041,25.635-9.707,38.118l-1.776,4.759l4.816,1.614
	c11.255,3.768,24.374,8.491,36.339,14.937c0.533,0.27,0.746,0.917,0.605,1.234c-4.81,12.19-11.66,24.021-18.354,35.019l-2.642,4.337
	l4.427,2.492c10.857,6.107,20.34,13.688,30.379,21.714l1.596,1.273c0.395,0.326,0.44,1.009,0.291,1.21
	c-7.982,10.186-16.728,20.259-25.919,29.837l-3.25,3.384l3.238,3.399c9.297,9.749,18.045,19.842,26.003,29.999
	c0.075,0.105,0.033,0.791-0.416,1.159l-1.542,1.231c-10.039,8.027-19.522,15.607-30.379,21.714l-4.427,2.492l2.642,4.337
	c6.694,10.998,13.544,22.829,18.273,34.827c0.222,0.509,0.009,1.153-0.389,1.351c-12.097,6.517-25.219,11.241-36.474,15.011
	l-4.816,1.614l1.776,4.759c4.669,12.49,7.122,24.967,9.719,38.178c0.087,0.467-0.254,1.012-0.461,1.054
	c-15.868,3.316-27.926,5.217-39.122,6.176l-4.804,0.407l0.324,4.813c0.356,5.265,0.782,12.232,0.91,19.444l0.042,2.165
	c0.123,5.927,0.249,12.055-0.323,17.677c-0.036,0.518-0.533,0.988-0.952,0.988l0,0c-6.583,0-13.109-0.159-20.064-0.488
	c-5.457-0.5-11.498-1.264-19.369-2.462l-4.894-0.743l-0.701,4.9c-0.997,6.982-1.929,13.259-3.253,19.414
	c-1.596,6.634-3.28,12.933-5.122,19.142c-0.135,0.467-0.647,0.797-1.018,0.797c-13.217-3.031-25.925-7.515-37.705-11.911
	l-4.502-1.68l-1.773,4.463c-4.085,10.264-9.381,21.286-17.18,35.737c-0.036,0.066-0.293,0.195-0.638,0.195
	c-6.122-2.992-11.89-6.164-18.219-9.839l-2.92-1.731c-1.755-1.027-3.504-2.049-5.226-3.199l-11.998-8.575l-2.857,3.959
	c-8.329,11.534-15.946,21.795-24.805,30.538C317.042,591.549,316.82,591.648,316.524,591.648z"></path>
<path id="frame_x5F_1_111_" d="M567.518,299.97c8.773-9.139,17.665-19.26,26.315-30.302c1.779-2.392,1.228-6.011-1.165-7.974
	c-10.98-8.771-20.855-16.807-32.632-23.432c6.685-10.98,13.739-23.125,18.647-35.577c1.225-2.76-0.063-6.195-2.761-7.545
	c-11.837-6.379-24.841-11.164-37.109-15.273c4.723-12.636,7.236-25.211,9.938-38.951c0.551-3.006-1.291-6.195-4.295-6.87
	c-13.801-2.821-26.746-5.091-39.688-6.195c0.431-6.379,0.8-12.943,0.919-19.69c0.126-6.686,0.368-13.801-0.306-20.426
	c-0.183-3.006-2.944-5.459-5.948-5.398c-6.934,0-13.619,0.184-20.181,0.491c-6.748,0.613-13.436,1.534-19.875,2.515
	c-0.92-6.441-1.902-13.188-3.313-19.751c-1.534-6.38-3.25-12.882-5.215-19.506c-0.857-2.944-3.986-4.846-6.931-4.171
	c-13.31,3.067-26.375,7.667-38.214,12.084c-4.783-12.023-10.734-23.861-17.419-36.251c-1.474-2.699-5.092-3.496-7.79-2.086
	c-6.197,3.19-12.145,6.502-17.851,9.814c-2.821,1.656-5.643,3.251-8.404,5.091l-8.156,5.827
	c-7.485-10.366-15.826-21.837-25.273-31.16c-2.085-2.208-5.766-2.392-8.099-0.429c-5.274,4.478-10.303,8.649-15.089,13.433
	c-4.783,4.846-9.324,9.753-13.616,14.599c-4.846-4.294-9.938-8.955-15.212-12.942c-5.274-3.926-10.797-7.79-16.563-11.593
	c-2.513-1.717-6.134-1.166-7.973,1.227c-4.172,5.153-7.913,11.287-11.471,16.868c-3.618,5.766-6.931,11.409-10.061,16.991
	c-11.408-6.318-23.493-11.348-36.618-16.562c-2.944-1.288-6.134,0.552-7.362,3.312c-2.636,6.441-5.092,12.759-7.299,19.015
	c-1.105,3.128-2.207,6.195-3.19,9.262l-2.516,9.753c-12.451-3.19-26.069-6.502-39.379-7.606c-3.067-0.368-6.011,1.84-6.502,4.846
	c-2.699,13.127-3.495,27.051-3.986,39.871l-9.998-0.307c-3.313,0-6.502,0.184-9.815,0.368c-6.625,0.368-13.373,0.859-20.304,1.595
	c-3.004,0.307-5.643,2.944-5.337,6.073c1.228,14.047,2.639,27.051,5.4,39.809c-6.257,1.411-12.636,2.945-19.201,4.723
	c-6.439,1.779-13.247,3.619-19.444,6.134c-2.821,1.043-4.415,4.355-3.495,7.299c1.962,6.563,4.046,12.943,6.257,19.138
	c2.576,6.318,5.337,12.452,8.096,18.34c-5.888,2.699-12.082,5.643-17.973,8.833c-5.643,3.312-11.345,6.87-17.111,10.673
	c-2.579,1.656-3.498,5.214-2.025,7.79c3.127,5.889,7.239,11.716,10.98,17.236c3.864,5.521,7.79,10.857,11.714,15.887
	c-5.58,3.987-9.998,8.342-15.026,12.82c-4.846,4.539-9.755,9.262-14.661,14.292c-1.042,1.104-1.656,2.576-1.716,3.987
	c0.06,1.473,0.674,2.945,1.716,4.049c4.906,5.03,9.815,9.753,14.661,14.292c5.029,4.478,9.446,8.833,15.026,12.758
	c-3.924,5.091-7.85,10.366-11.714,15.949c-3.741,5.52-7.853,11.348-10.98,17.236c-1.474,2.576-0.554,6.134,2.025,7.79
	c5.766,3.803,11.468,7.361,17.111,10.673c5.891,3.189,12.085,6.073,17.973,8.833c-2.758,5.888-5.52,12.022-8.096,18.34
	c-2.21,6.195-4.295,12.574-6.257,19.138c-0.92,2.944,0.674,6.256,3.495,7.299c6.197,2.515,13.005,4.355,19.444,6.134
	c6.565,1.779,12.945,3.312,19.201,4.723c-2.761,12.759-4.172,25.763-5.4,39.809c-0.305,3.128,2.333,5.766,5.337,6.073
	c6.931,0.736,13.679,1.227,20.304,1.595c3.313,0.184,6.502,0.368,9.815,0.368l9.998-0.368c0.491,12.881,1.288,26.805,3.986,39.932
	c0.491,3.006,3.435,5.214,6.502,4.846c13.31-1.104,26.929-4.417,39.379-7.606l2.516,9.753c0.982,3.067,2.085,6.134,3.19,9.262
	c2.207,6.257,4.663,12.575,7.299,19.015c1.228,2.76,4.418,4.6,7.362,3.313c13.125-5.214,25.21-10.244,36.618-16.562
	c3.13,5.582,6.442,11.225,10.061,16.991c3.558,5.582,7.299,11.716,11.471,16.868c1.839,2.392,5.46,2.944,7.973,1.226
	c5.766-3.803,11.288-7.667,16.563-11.593c5.274-3.987,10.366-8.649,15.212-13.004c4.292,4.907,8.833,9.814,13.616,14.66
	c4.786,4.785,9.815,8.956,15.089,13.433c2.333,1.963,6.014,1.779,8.036-0.429c9.509-9.385,17.851-20.794,25.335-31.16l8.156,5.827
	c2.761,1.84,5.583,3.374,8.404,5.091c5.706,3.313,11.654,6.625,17.851,9.814c2.699,1.411,6.317,0.613,7.79-2.086
	c6.685-12.391,12.636-24.229,17.419-36.251c11.84,4.416,24.904,9.017,38.214,12.084c2.944,0.675,6.074-1.227,6.931-4.171
	c1.965-6.625,3.681-13.127,5.215-19.506c1.411-6.563,2.393-13.31,3.313-19.751c6.439,0.982,13.128,1.901,19.875,2.515
	c6.562,0.307,13.247,0.491,20.181,0.491c3.004,0.061,5.766-2.392,5.948-5.398c0.674-6.625,0.431-13.74,0.306-20.426
	c-0.12-6.747-0.488-13.31-0.919-19.69c12.942-1.104,25.887-3.374,39.688-6.256c3.004-0.614,4.846-3.803,4.295-6.809
	c-2.701-13.74-5.214-26.314-9.938-38.95c12.268-4.11,25.273-8.894,37.109-15.273c2.699-1.35,3.987-4.785,2.761-7.545
	c-4.909-12.452-11.962-24.597-18.647-35.577c11.777-6.624,21.651-14.66,32.632-23.432c2.393-1.962,2.944-5.582,1.165-7.974
	C585.183,319.293,576.291,309.171,567.518,299.97z M566.23,345.178c-5.397,3.742-10.303,7.422-16.131,10.612
	c-1.288,0.736-2.085,1.779-2.453,3.006c-0.309,1.227-0.063,2.576,0.674,3.803c3.435,5.337,6.748,10.98,10.06,16.807
	c3.067,5.766,5.706,11.655,8.401,17.85c-6.008,3.005-11.959,5.766-17.848,8.281c-6.317,2.331-12.513,4.478-18.585,6.441
	c-1.351,0.429-2.393,1.288-2.947,2.454h0.063c-0.554,1.104-0.674,2.515-0.123,3.864c2.393,6.195,3.864,12.207,5.52,18.524
	c1.596,6.318,3.067,12.82,4.418,19.567c-13.065,3.006-26.5,4.662-38.828,5.889c-1.351,0.184-2.576,0.736-3.435,1.718
	c-0.737,0.797-1.165,1.901-1.165,3.128v0.429c0.551,6.318,0.919,12.759,1.165,19.383c0.123,3.312,0.306,6.747,0.183,10.06
	l-0.491,9.875c-13.616-0.307-26.252-0.797-39.194-3.251c-1.411-0.245-2.762,0.123-3.744,0.859c-0.979,0.736-1.716,1.963-1.899,3.374
	c-1.351,13.127-4.478,25.272-8.099,38.46l-9.566-2.331c-3.253-0.92-6.442-2.024-9.572-3.067c-6.317-2.147-12.388-4.355-18.216-6.686
	c-1.288-0.552-2.639-0.49-3.804,0.061c-1.102,0.614-2.025,1.595-2.576,2.822c-4.723,11.47-10.183,23.861-16.868,35.515
	c-6.011-3.251-11.837-6.563-17.419-9.875c-5.583-3.496-10.857-6.502-16.132-10.673c-1.168-0.859-2.516-1.166-3.744-0.982
	c-1.225,0.184-2.39,0.92-3.19,2.024c-3.618,5.275-7.422,10.551-11.531,15.887c-4.049,5.275-8.464,9.814-13.065,14.783
	c-5.092-4.355-10.001-8.771-14.661-13.188c-4.66-4.478-9.078-9.692-13.25-14.415c-0.919-1.104-2.207-1.717-3.432-1.779H284.5
	c-1.168,0-2.393,0.491-3.375,1.411c-9.447,9.262-19.69,16.378-30.915,24.291l-5.888-7.974c-1.839-2.699-3.618-5.705-5.334-8.465
	c-3.438-5.705-6.688-11.348-9.632-16.868c-0.674-1.288-1.716-2.086-2.944-2.392c-1.225-0.307-2.639-0.061-3.864,0.552
	c-10.98,5.766-23.002,11.593-35.698,16.378c-5.032-12.881-9.446-24.843-12.513-37.294c-0.308-1.411-1.168-2.576-2.21-3.19
	c-0.737-0.429-1.593-0.675-2.453-0.675c-0.428,0-0.92,0.061-1.351,0.184c-6.134,1.717-12.451,3.312-19.013,4.784
	c-6.442,1.288-12.822,2.086-19.507,2.944c-1.105-6.686-2.085-13.126-2.821-19.567c-0.428-6.686-0.737-13.249-0.797-19.628
	c-0.063-1.411-0.614-2.638-1.533-3.435c-0.86-0.798-2.025-1.227-3.253-1.227h-0.428c-6.625,0.491-12.759,0.184-19.321,0
	c-6.565-0.307-13.187-0.736-20.058-1.35c0.92-13.433,3.067-26.744,5.397-38.889c0.246-1.35,0.123-2.699-0.551-3.803l-1.168,0.736
	l1.105-0.797c-0.674-1.043-1.716-1.84-3.067-2.147c-12.205-2.576-25.701-5.52-37.909-10.305
	c4.112-13.004,8.281-24.965,14.355-36.681c0.614-1.288,0.674-2.638,0.246-3.803s-1.351-2.208-2.639-2.76
	c-12.205-5.03-22.939-11.593-34.533-18.831c6.194-11.532,14.721-22.511,22.388-32.326c0.92-1.104,1.228-2.392,1.042-3.619
	c-0.183-1.288-0.919-2.454-2.085-3.312c-9.692-7.852-19.444-16.623-29.259-26.376c9.815-9.691,19.567-18.463,29.259-26.314
	c1.165-0.859,1.902-2.024,2.085-3.312c0.186-1.227-0.183-2.515-1.042-3.619c-7.667-9.814-16.194-20.855-22.388-32.326
	c11.594-7.238,22.328-13.801,34.533-18.831c1.288-0.552,2.21-1.595,2.639-2.76c0.428-1.165,0.368-2.576-0.246-3.803
	c-6.074-11.716-10.243-23.677-14.355-36.681c12.208-4.784,25.704-7.728,37.909-10.366c1.411-0.245,2.453-1.043,3.13-2.085v-0.061
	c0.674-1.043,0.797-2.454,0.551-3.803c-2.33-12.145-4.478-25.456-5.397-38.889c6.871-0.613,13.493-1.043,20.058-1.349
	c6.562-0.184,12.696-0.491,19.321,0c1.411,0.123,2.699-0.368,3.681-1.227c0.919-0.798,1.471-2.085,1.533-3.496
	c0.06-6.318,0.368-12.881,0.797-19.567c0.737-6.441,1.716-12.881,2.821-19.567c6.685,0.859,13.065,1.656,19.507,2.945
	c6.562,1.472,12.879,3.067,19.013,4.784c1.351,0.368,2.702,0.184,3.804-0.491c1.042-0.675,1.842-1.779,2.21-3.189
	c3.067-12.452,7.482-24.413,12.513-37.295c12.696,4.785,24.718,10.612,35.698,16.377c1.225,0.614,2.639,0.859,3.864,0.552
	c1.228-0.307,2.27-1.166,2.944-2.392c2.944-5.52,6.194-11.164,9.632-16.868c1.716-2.76,3.495-5.766,5.334-8.465l5.888-7.974
	c11.226,7.913,21.469,15.028,30.915,24.29c1.042,0.981,2.333,1.472,3.621,1.411c1.225-0.061,2.513-0.675,3.432-1.779
	c4.172-4.785,8.59-9.937,13.25-14.415c4.66-4.416,9.569-8.833,14.661-13.188c4.6,4.969,9.015,9.507,13.065,14.783
	c4.109,5.336,7.913,10.612,11.531,15.887c0.8,1.165,1.965,1.84,3.19,2.024c1.228,0.184,2.576-0.122,3.744-0.981
	c5.274-4.171,10.549-7.177,16.132-10.673c5.583-3.313,11.408-6.625,17.419-9.876c6.685,11.655,12.145,24.045,16.868,35.516
	c0.551,1.227,1.474,2.208,2.576,2.821V65.66c1.165,0.552,2.516,0.675,3.804,0.122c5.828-2.331,11.9-4.539,18.216-6.686
	c3.13-1.043,6.32-2.147,9.572-3.067l9.566-2.331c3.621,13.188,6.748,25.333,8.099,38.46c0.183,1.472,0.919,2.638,1.899,3.374
	c0.8,0.552,1.779,0.92,2.884,0.92c0.246,0,0.554,0,0.86-0.061c12.942-2.453,25.578-2.944,39.194-3.251l0.491,9.876
	c0.123,3.313-0.06,6.748-0.183,10.06c-0.246,6.625-0.614,13.065-1.165,19.383c-0.123,1.411,0.306,2.638,1.165,3.558
	c0.86,0.92,2.085,1.534,3.435,1.718c12.328,1.227,25.764,2.883,38.828,5.888c-1.351,6.748-2.821,13.249-4.418,19.567
	c-1.656,6.318-3.127,12.329-5.52,18.525c-0.551,1.349-0.431,2.76,0.06,3.864h0.063c0.551,1.165,1.534,2.024,2.884,2.453
	c6.071,1.963,12.268,4.11,18.585,6.441c5.888,2.515,11.84,5.275,17.848,8.281c-2.696,6.195-5.334,12.084-8.401,17.85
	c-3.313,5.827-6.625,11.471-10.06,16.807c-0.797,1.227-0.982,2.576-0.674,3.803c0.368,1.165,1.165,2.27,2.453,3.006
	c5.828,3.19,10.734,6.87,16.131,10.612c5.277,3.803,10.552,7.852,15.949,12.145c-3.681,5.336-8.527,10.55-12.819,15.457
	c-4.355,4.907-8.773,9.63-13.187,14.047c-1.045,0.981-1.474,2.27-1.414,3.496v0.246c0,1.165,0.491,2.392,1.414,3.312
	c4.415,4.417,8.833,9.139,13.187,14.047c4.292,4.907,9.138,10.121,12.819,15.457C576.782,337.326,571.507,341.313,566.23,345.178z
	 M565.999,331.15c-6.026,4.537-12.013,8.769-17.932,12.701l2.225-14.517c0.47-2.408,0.683-4.846,0.722-7.303l0.356-7.344
	l7.521,8.025C561.471,325.47,563.87,328.286,565.999,331.15z M585.683,359.064c3.055-2.259,6.056-4.609,9.105-7.027l-1.363,8.617
	l-2.151,8.46l-4.361,16.906c-3.582-7.141-7.266-13.991-11.028-20.54L585.683,359.064z M541.47,372.434
	c3.915,6.274,6.766,12.541,10.057,19.268c-6.826,3.047-13.184,5.954-20.055,8.312c2.034-4.448,3.432-9.161,5.196-13.72
	C538.223,381.66,540.335,377.199,541.47,372.434z M553.333,427.448c7.101-2.595,14.338-5.467,21.684-8.627l-7.563,15.733
	l-3.807,7.853c-1.393,2.549-2.974,4.997-4.457,7.498c-0.797-3.821-1.536-7.521-2.498-11.255L553.333,427.448z M518.135,426.153
	c2.013,6.819,3.882,13.909,5.586,21.259c-7.021,1.603-14.739,2.366-21.783,3.214c2.821-3.998,6.131-7.667,8.581-11.914
	L518.135,426.153z M517.203,482.609c7.694-0.724,14.972-2.189,22.76-3.631c-3.561,4.592-6.799,9.453-10.654,13.8l-11.72,12.916
	C517.674,497.781,517.539,490.08,517.203,482.609z M483.092,473.139l0.665,11.044l-0.192,10.834
	c-7.47-0.334-14.715-0.876-21.72-1.602l10.869-9.895l5.454-4.926L483.092,473.139z M469.103,527.713
	c7.497,0.846,15.514,1.842,23.251,2.021c-4.346,3.857-9.207,7.093-13.801,10.654c-4.732,3.37-9.15,7.205-14.164,10.16
	C466.503,543.192,467.764,535.125,469.103,527.713z M425.728,518.561l12.558-7.618c-1.294,6.928-2.833,14.037-4.639,21.303
	c-3.555-0.952-6.991-1.842-10.453-2.948c-3.531-1.229-6.993-2.493-10.384-3.788l6.625-3.167
	C421.579,521.167,423.625,519.813,425.728,518.561z M412.127,560.927c7.056,2.453,14.394,4.779,22.002,6.954l-15.733,7.561
	c-5.295,2.399-10.872,4.141-16.302,6.224C405.724,574.63,409.204,568.042,412.127,560.927z M372.008,541.894
	c4.765-1.136,9.228-3.245,13.861-4.8c-2.83,6.507-5.781,13.674-9.333,19.948c-6.547-3.76-12.801-7.603-18.746-11.505
	L372.008,541.894z M358.638,586.107l10.052,5.593l-8.458,2.15l-8.617,1.362l-17.255,2.623c5.146-6.096,9.989-12.17,14.523-18.196
	C352.061,581.808,355.319,584.001,358.638,586.107z M321.607,551.441c2.456-0.04,4.894-0.252,7.302-0.723
	c-2.106,3.089-4.316,5.927-6.622,8.599l-7.116,8.265c-5.502-5-10.698-10.013-15.595-15.013l14.685-0.771L321.607,551.441z
	 M299.575,600l-17.41-0.849l-8.707-0.454c-2.908-0.079-5.799-0.337-8.668-0.862c3.172-2.093,6.29-4.461,9.351-7.015l8.931-7.454
	C288.271,588.907,293.77,594.46,299.575,600z M255.724,548.492l14.517,2.225c-5.442,4.48-11.193,8.938-17.246,13.348
	c-2.115-2.995-4.163-5.938-6.122-8.933c-1.911-3.217-3.75-6.416-5.511-9.594l7.101,1.851L255.724,548.492z M86.436,440.131v0.061
	l-1.168,0.736l1.105-0.797H86.436z M218.084,572.191c3.825,6.428,7.949,12.939,12.376,19.509l-16.904-4.361
	c-5.652-1.401-10.995-3.802-16.5-5.673C204.364,578.585,211.217,575.928,218.084,572.191z M199.56,531.897
	c4.448,2.034,9.162,3.432,13.721,5.198c-6.362,3.186-13.169,6.634-19.989,9.317c-2.594-7.102-4.906-14.077-6.952-20.902
	L199.56,531.897z M160.926,557.118l4.094,10.762l-7.853-3.807c-2.549-1.394-4.996-2.973-7.497-4.455l-14.906-9.069
	c7.859-1.367,15.473-2.912,22.822-4.616C158.635,549.619,159.698,553.442,160.926,557.118z M148.949,502.362
	c3.999,2.821,7.667,6.131,11.915,8.581c-7.146,1.951-13.972,2.873-21.364,4.094c-0.952-7.421-1.938-14.319-2.195-21.623
	C140.952,496.683,145.091,499.349,148.949,502.362z M104.732,506.516c0.458,7.54,1.141,15.286,2.064,23.218l-12.915-11.721
	l-6.439-5.882l-5.879-6.438l11.471,0.848L104.732,506.516z M106.161,462.271l9.896,10.867c-7.122-0.014-14.463-0.24-22.002-0.698
	c0.569-7.27,1.947-14.807,3.157-21.814C100.225,454.483,102.894,458.624,106.161,462.271z M86.436,440.192l-1.168,0.736l1.105-0.797
	C86.436,440.131,86.436,440.192,86.436,440.192z M39.958,449.904c7.575,2.337,15.005,4.402,22.271,6.208
	c-1.614,7.658-2.186,14.981-3.043,22.865c-3.369-4.734-7.203-9.151-10.159-14.166L39.958,449.904z M77.232,419.859
	c1.177,2.144,2.531,4.191,3.783,6.294c-3.531-0.783-7.206-1.577-10.737-2.536l-10.333-3.276c2.45-7.057,5.038-13.836,7.733-20.328
	l6.389,13.221L77.232,419.859z M12.235,386.021c6.451,4.141,13.813,7.678,20.531,11.09c-2.974,6.942-6.194,14.325-8.632,21.71
	c-2.399-5.295-4.142-10.871-6.224-16.302C16.039,397.013,13.637,391.672,12.235,386.021z M54.038,358.214l3.642,14.22
	c-6.251-3.234-12.6-6.76-19.028-10.586l5.792-9.146c2.166-3.019,4.418-5.977,6.64-8.851l1.102,7.26L54.038,358.214z M17.447,332.967
	c-4.412,6.053-8.779,12.411-13.082,19.07L1.74,334.784c-0.524-2.868-0.782-5.76-0.863-8.667l-0.452-8.705l8.329,8.023
	C11.454,328.042,14.323,330.555,17.447,332.967z M47.778,314.686c-5.505-4.592-11.04-9.487-16.581-14.686
	c5.541-5.198,11.076-10.093,16.581-14.686L47.008,300L47.778,314.686z M8.755,274.564l-8.329,8.024l0.452-8.705
	c0.081-2.908,0.339-5.799,0.863-8.667l2.624-17.254c4.304,6.659,8.671,13.017,13.082,19.071
	C14.323,269.445,11.454,271.958,8.755,274.564z M38.652,238.153c6.427-3.827,12.78-7.352,19.028-10.587l-3.642,14.22l-1.851,7.104
	l-1.102,7.26c-2.222-2.873-4.475-5.831-6.64-8.85L38.652,238.153z M32.767,202.889c-6.718,3.412-14.08,6.948-20.531,11.09
	c1.402-5.651,3.804-10.993,5.676-16.498c2.082-5.43,3.825-11.007,6.224-16.302C26.573,188.564,29.792,195.947,32.767,202.889z
	 M70.277,176.383c3.531-0.959,7.206-1.753,10.737-2.536c-1.252,2.103-2.606,4.149-3.783,6.294l-3.166,6.624l-6.389,13.221
	c-2.696-6.492-5.283-13.27-7.733-20.327L70.277,176.383z M62.229,143.888c-7.266,1.806-14.697,3.87-22.271,6.208l9.069-14.908
	c2.956-5.015,6.79-9.432,10.159-14.166C60.043,128.906,60.615,136.229,62.229,143.888z M94.055,127.56
	c7.539-0.458,14.88-0.684,22.002-0.698l-9.896,10.867c-3.268,3.647-5.936,7.788-8.949,11.645
	C96.002,142.367,94.624,134.83,94.055,127.56z M93.034,93.458l-11.471,0.848l5.879-6.438l6.439-5.882l12.915-11.72
	c-0.923,7.932-1.605,15.678-2.064,23.219L93.034,93.458z M139.499,84.963c7.392,1.221,14.218,2.143,21.364,4.094
	c-4.247,2.45-7.916,5.76-11.915,8.581c-3.858,3.013-7.997,5.679-11.645,8.948C137.562,99.281,138.547,92.384,139.499,84.963z
	 M157.587,54.068c-7.35-1.704-14.963-3.25-22.822-4.616l14.906-9.069c2.501-1.482,4.948-3.061,7.497-4.456l7.853-3.807
	l-4.094,10.762C159.698,46.558,158.635,50.381,157.587,54.068z M193.291,53.589c6.823,2.683,13.628,6.131,19.989,9.317
	c-4.559,1.766-9.27,3.164-13.717,5.198l-13.223,6.387C188.385,67.666,190.697,60.691,193.291,53.589z M218.084,27.809
	c-6.868-3.737-13.72-6.394-21.028-9.474c5.505-1.872,10.848-4.273,16.5-5.674L230.46,8.3
	C226.033,14.87,221.909,21.382,218.084,27.809z M252.995,35.935c6.053,4.41,11.804,8.867,17.246,13.348l-14.517,2.225l-7.26,1.104
	l-7.101,1.851c1.761-3.178,3.6-6.377,5.511-9.594C248.832,41.873,250.881,38.931,252.995,35.935z M274.14,9.18
	c-3.061-2.553-6.179-4.921-9.348-7.014c2.866-0.525,5.757-0.783,8.665-0.862l8.707-0.454L299.575,0
	c-5.802,5.54-11.303,11.093-16.503,16.634L274.14,9.18z M322.286,40.684c2.306,2.672,4.517,5.51,6.622,8.599
	c-2.408-0.471-4.846-0.684-7.302-0.724l-7.344-0.356l-14.688-0.771c4.897-5,10.093-10.013,15.595-15.013L322.286,40.684z
	 M348.883,20.361c-4.535-6.026-9.378-12.1-14.523-18.196l17.255,2.623l8.617,1.362l8.458,2.15l-10.048,5.593
	C355.319,15.999,352.061,18.192,348.883,20.361z M376.536,42.958c3.552,6.273,6.502,13.441,9.333,19.947
	c-4.633-1.555-9.096-3.664-13.861-4.8l-14.218-3.643C363.735,50.562,369.989,46.718,376.536,42.958z M412.127,39.074
	c-2.923-7.116-6.404-13.703-10.034-20.739c5.43,2.083,11.007,3.825,16.302,6.224l15.733,7.561
	C426.521,34.295,419.183,36.621,412.127,39.074z M433.647,67.754c1.806,7.266,3.349,14.375,4.642,21.303l-12.561-7.618
	c-2.103-1.252-4.148-2.606-6.293-3.782l-6.625-3.167c3.39-1.295,6.853-2.559,10.384-3.788
	C426.656,69.596,430.091,68.706,433.647,67.754z M469.103,72.287c-1.339-7.412-2.6-15.479-4.714-22.836
	c5.014,2.956,9.431,6.791,14.164,10.16c4.594,3.561,9.455,6.798,13.801,10.654C484.617,70.445,476.599,71.44,469.103,72.287z
	 M483.566,104.983l0.192,10.834l-0.662,11.044l-4.927-5.454l-5.454-4.926l-10.869-9.895
	C468.851,105.859,476.096,105.318,483.566,104.983z M539.963,121.022c-7.787-1.442-15.065-2.908-22.76-3.632
	c0.336-7.47,0.47-15.171,0.386-23.085l11.72,12.916C533.164,111.569,536.402,116.43,539.963,121.022z M501.938,149.374
	c7.044,0.848,14.763,1.611,21.783,3.214c-1.704,7.35-3.573,14.441-5.586,21.259l-7.617-12.559
	C508.069,157.041,504.759,153.372,501.938,149.374z M575.018,181.179c-7.347-3.16-14.583-6.033-21.684-8.627l3.361-11.201
	c0.961-3.734,1.701-7.435,2.498-11.255c1.483,2.501,3.064,4.949,4.457,7.497l3.807,7.853L575.018,181.179z M536.669,213.706
	c-1.764-4.559-3.163-9.272-5.196-13.72c6.871,2.358,13.229,5.265,20.055,8.312c-3.292,6.727-6.143,12.994-10.057,19.268
	C540.335,222.802,538.223,218.34,536.669,213.706z M575.886,234.519c3.762-6.549,7.446-13.399,11.028-20.539l4.361,16.906
	l2.151,8.46l1.363,8.617c-3.049-2.418-6.05-4.767-9.105-7.027L575.886,234.519z M550.293,270.667l-2.225-14.517
	c5.918,3.931,11.905,8.163,17.932,12.7c-2.13,2.864-4.529,5.68-7.107,8.439l-7.521,8.025l-0.356-7.344
	C550.976,275.513,550.763,273.075,550.293,270.667z M599.574,300l-0.848,17.412c-4.966-6.107-9.962-11.911-14.96-17.412
	c4.999-5.501,9.995-11.305,14.96-17.412L599.574,300z" fill="rgba(169, 90, 67, 1)"></path></g></g><g><g data-element="icon" transform="scale(0.14999862672167974) translate(1800.019458795823 1133.346650440561)"><path id="color_x5F_2_1_" fill="#a95a43" d="M393.541,372.754c63.243-63.243,116.719-126.811,155.885-183.11v235.072    c0,22.958-18.611,41.569-41.57,41.569H291.589C324.864,438.457,359.249,407.046,393.541,372.754z M362.365,487.069h-96.253    c-12.967,10.307-25.706,20.009-38.147,29.075l-2.987,8.961c-3.988,11.963,4.917,24.318,17.527,24.318h115.011    c12.611,0,21.515-12.354,17.527-24.318L362.365,487.069z"></path> <path id="color_x5F_1_4_" fill="#a95a43" d="M378.09,367.386c26.009-26.245,50.319-52.508,72.599-78.25    C551.359,172.824,610.616,67.212,598.419,22.383c-1.452-5.337-3.895-9.832-7.424-13.361    c-29.898-29.899-127.74,16.579-242.073,108.542h29.81c74.233-51.864,134.806-74.333,156.43-52.708    c11.007,11.007,10.576,32.114,0.676,59.965c-1.733,4.874-3.741,9.945-6.044,15.216c-6.373-3.973-13.874-6.307-21.938-6.307H92.164    c-22.957,0-41.569,18.611-41.569,41.569v249.416c0,22.958,18.612,41.569,41.569,41.569h151.434    c-7.554,5.665-14.997,11.057-22.308,16.166c-48.736,34.049-91.575,55.422-121.378,59.971c-8.159,1.245-15.333,1.222-21.39-0.14    c-5.52-1.241-10.121-3.581-13.662-7.123c-11.006-11.007-10.575-32.114-0.675-59.965c-8.831-4.914-16.248-12.072-21.466-20.705    C3.299,520.231-11.046,570.921,9.026,590.992c7.98,7.98,20.815,10.502,37.498,8.189c67.302-9.333,197.448-97.643,326.233-226.428    C374.546,370.965,376.317,369.175,378.09,367.386z"></path></g><text transform="translate(410.59271240234375 239.5)" fill="rgba(169, 90, 67, 1)" font-family="Sawarabi Mincho" font-size="64" data-element="company-name" dx="0 0 0 0 0 0 0 0 0 0 0">webMarvelUA</text></g></g></svg>