<?xml version="1.0" encoding="utf-8"?>
<!-- Generator: Adobe Illustrator 17.1.0, SVG Export Plug-In . SVG Version: 6.00 Build 0)  -->
<!DOCTYPE svg PUBLIC "-//W3C//DTD SVG 1.1//EN" "http://www.w3.org/Graphics/SVG/1.1/DTD/svg11.dtd">
<svg version="1.1" id="Layer_2" xmlns="http://www.w3.org/2000/svg" xmlns:xlink="http://www.w3.org/1999/xlink" x="0px" y="0px"
	 viewBox="0 0 3000 1000" enable-background="new 0 0 3000 1000" xml:space="preserve">
<line fill="none" stroke="#FFFFFF" stroke-miterlimit="10" x1="2585.4" y1="888.4" x2="1563.6" y2="-133.4"/>
<line fill="none" stroke="#FFFFFF" stroke-miterlimit="10" x1="2644.4" y1="903.4" x2="1622.6" y2="-118.4"/>
<line fill="none" stroke="#FFFFFF" stroke-miterlimit="10" x1="2697.4" y1="702.4" x2="1675.6" y2="-319.4"/>
<line fill="none" stroke="#FFFFFF" stroke-miterlimit="10" x1="2710.4" y1="447.4" x2="1688.6" y2="-574.4"/>
<line fill="none" stroke="#FFFFFF" stroke-miterlimit="10" x1="2177.4" y1="1176.4" x2="1155.6" y2="154.6"/>
<line fill="none" stroke="#FFFFFF" stroke-miterlimit="10" x1="2005.4" y1="1113.4" x2="983.6" y2="91.6"/>
<line fill="none" stroke="#FFFFFF" stroke-miterlimit="10" x1="983.4" y1="1149.4" x2="-38.4" y2="127.6"/>
<line fill="none" stroke="#FFFFFF" stroke-miterlimit="10" x1="1622.4" y1="1724.4" x2="600.6" y2="702.6"/>
<line fill="none" stroke="#FFFFFF" stroke-miterlimit="10" x1="1829.4" y1="1828.4" x2="807.6" y2="806.6"/>
<line fill="none" stroke="#FFFFFF" stroke-miterlimit="10" x1="1315.4" y1="1760.4" x2="293.6" y2="738.6"/>
<line fill="none" stroke="#FFFFFF" stroke-miterlimit="10" x1="1260.4" y1="1872.4" x2="238.6" y2="850.6"/>
<line fill="none" stroke="#FFFFFF" stroke-miterlimit="10" x1="2358.4" y1="1660.4" x2="1336.6" y2="638.6"/>
<line fill="none" stroke="#FFFFFF" stroke-miterlimit="10" x1="2133.4" y1="1910.4" x2="1111.6" y2="888.6"/>
<line fill="none" stroke="#FFFFFF" stroke-miterlimit="10" x1="2218.4" y1="1966.4" x2="1196.6" y2="944.6"/>
<line fill="none" stroke="#FFFFFF" stroke-miterlimit="10" x1="2981.4" y1="1787.4" x2="1959.6" y2="765.6"/>
<line fill="none" stroke="#FFFFFF" stroke-miterlimit="10" x1="2911.4" y1="1361.4" x2="1889.6" y2="339.6"/>
<line fill="none" stroke="#FFFFFF" stroke-miterlimit="10" x1="3208.4" y1="1399.4" x2="2186.6" y2="377.6"/>
<line fill="none" stroke="#FFFFFF" stroke-miterlimit="10" x1="3422.4" y1="1496.4" x2="2400.6" y2="474.6"/>
<line fill="none" stroke="#FFFFFF" stroke-miterlimit="10" x1="983.4" y1="1176.4" x2="-38.4" y2="154.6"/>
<line fill="none" stroke="#FFFFFF" stroke-miterlimit="10" x1="293.4" y1="1113.4" x2="-728.4" y2="91.6"/>
<line fill="none" stroke="#FFFFFF" stroke-miterlimit="10" x1="13.4" y1="1317.4" x2="-1008.4" y2="295.6"/>
<line fill="none" stroke="#FFFFFF" stroke-miterlimit="10" x1="-847.4" y1="665.4" x2="174.4" y2="-356.4"/>
<line fill="none" stroke="#FFFFFF" stroke-miterlimit="10" x1="-386.4" y1="1213.4" x2="635.4" y2="191.6"/>
<line fill="none" stroke="#FFFFFF" stroke-miterlimit="10" x1="-847.4" y1="1113.4" x2="174.4" y2="91.6"/>
<line fill="none" stroke="#FFFFFF" stroke-miterlimit="10" x1="-897.4" y1="1607.4" x2="124.4" y2="585.6"/>
<line fill="none" stroke="#FFFFFF" stroke-miterlimit="10" x1="174.6" y1="1249.4" x2="1196.4" y2="227.6"/>
<line fill="none" stroke="#FFFFFF" stroke-miterlimit="10" x1="685.6" y1="585.4" x2="1707.4" y2="-436.4"/>
<line fill="none" stroke="#FFFFFF" stroke-miterlimit="10" x1="13.6" y1="551.4" x2="1035.4" y2="-470.4"/>
<line fill="none" stroke="#FFFFFF" stroke-miterlimit="10" x1="1352.6" y1="838.4" x2="2374.4" y2="-183.4"/>
<line fill="none" stroke="#FFFFFF" stroke-miterlimit="10" x1="1196.6" y1="602.4" x2="2218.4" y2="-419.4"/>
<line fill="none" stroke="#FFFFFF" stroke-miterlimit="10" x1="1768.6" y1="1176.4" x2="2790.4" y2="154.6"/>
<line fill="none" stroke="#FFFFFF" stroke-miterlimit="10" x1="2074.6" y1="602.4" x2="3096.4" y2="-419.4"/>
<line fill="none" stroke="#FFFFFF" stroke-miterlimit="10" x1="1052.6" y1="1787.4" x2="2074.4" y2="765.6"/>
<line fill="none" stroke="#FFFFFF" stroke-miterlimit="10" x1="867.6" y1="1828.4" x2="1889.4" y2="806.6"/>
<line fill="none" stroke="#FFFFFF" stroke-miterlimit="10" x1="2279.6" y1="921.4" x2="3301.4" y2="-100.4"/>
<line fill="none" stroke="#FFFFFF" stroke-miterlimit="10" x1="2470.6" y1="838.4" x2="3492.4" y2="-183.4"/>
<line fill="none" stroke="#FFFFFF" stroke-miterlimit="10" x1="1431.6" y1="40.4" x2="2453.4" y2="-981.4"/>
<line fill="none" stroke="#FFFFFF" stroke-miterlimit="10" x1="968.6" y1="245.4" x2="1990.4" y2="-776.4"/>
<line fill="none" stroke="#FFFFFF" stroke-miterlimit="10" x1="238.6" y1="271.4" x2="1260.4" y2="-750.4"/>
<line fill="none" stroke="#FFFFFF" stroke-miterlimit="10" x1="-516.4" y1="410.4" x2="505.4" y2="-611.4"/>
</svg>
