<?xml version="1.0" encoding="utf-8"?>
<!-- Generator: Adobe Illustrator 17.1.0, SVG Export Plug-In . SVG Version: 6.00 Build 0)  -->
<!DOCTYPE svg PUBLIC "-//W3C//DTD SVG 1.1//EN" "http://www.w3.org/Graphics/SVG/1.1/DTD/svg11.dtd">
<svg version="1.1" id="Layer_1" xmlns="http://www.w3.org/2000/svg" xmlns:xlink="http://www.w3.org/1999/xlink" x="0px" y="0px"
	 viewBox="0 0 3000 1000" enable-background="new 0 0 3000 1000" xml:space="preserve">
<rect x="2679.4" y="771.5" transform="matrix(0.7071 0.7071 -0.7071 0.7071 1371.4286 -1685.9723)" fill="none" stroke="#FFFFFF" stroke-miterlimit="10" width="83" height="82"/>
<rect x="2776.2" y="830.1" transform="matrix(0.7071 0.7071 -0.7071 0.7071 1420.719 -1728.6278)" fill="none" stroke="#FFFFFF" stroke-miterlimit="10" width="41.5" height="41"/>
<rect x="2967.6" y="882.5" transform="matrix(0.7071 0.7071 -0.7071 0.7071 1506.5917 -1845.5477)" fill="none" stroke="#FFFFFF" stroke-miterlimit="10" width="27" height="26.6"/>
<rect x="2888.6" y="584.5" transform="matrix(0.7071 0.7071 -0.7071 0.7071 1272.7366 -1876.9664)" fill="none" stroke="#FFFFFF" stroke-miterlimit="10" width="27" height="26.6"/>
<rect x="2850.6" y="477.5" transform="matrix(0.7071 0.7071 -0.7071 0.7071 1185.9468 -1881.4353)" fill="none" stroke="#FFFFFF" stroke-miterlimit="10" width="27" height="26.6"/>
<rect x="2850.6" y="113.5" transform="matrix(0.7071 0.7071 -0.7071 0.7071 928.5609 -1988.046)" fill="none" stroke="#FFFFFF" stroke-miterlimit="10" width="27" height="26.6"/>
<rect x="2441.6" y="113.6" transform="matrix(0.7071 0.7071 -0.7071 0.7071 808.7704 -1698.8406)" fill="none" stroke="#FFFFFF" stroke-miterlimit="10" width="27" height="26.6"/>
<rect x="2422.6" y="301.6" transform="matrix(0.7071 0.7071 -0.7071 0.7071 936.1411 -1630.3428)" fill="none" stroke="#FFFFFF" stroke-miterlimit="10" width="27" height="26.6"/>
<rect x="2460.6" y="740.5" transform="matrix(0.7071 0.7071 -0.7071 0.7071 1257.6895 -1528.6357)" fill="none" stroke="#FFFFFF" stroke-miterlimit="10" width="27" height="26.6"/>
<rect x="2100.6" y="882.5" transform="matrix(0.7071 0.7071 -0.7071 0.7071 1252.6591 -1232.4885)" fill="none" stroke="#FFFFFF" stroke-miterlimit="10" width="27" height="26.6"/>
<rect x="2032.6" y="433.6" transform="matrix(0.7071 0.7071 -0.7071 0.7071 915.2531 -1315.9113)" fill="none" stroke="#FFFFFF" stroke-miterlimit="10" width="27" height="26.6"/>
<rect x="2176.6" y="301.6" transform="matrix(0.7071 0.7071 -0.7071 0.7071 864.091 -1456.3953)" fill="none" stroke="#FFFFFF" stroke-miterlimit="10" width="27" height="26.6"/>
<rect x="1861.6" y="143.6" transform="matrix(0.7071 0.7071 -0.7071 0.7071 660.1094 -1279.9337)" fill="none" stroke="#FFFFFF" stroke-miterlimit="10" width="27" height="26.6"/>
<rect x="2251.6" y="7.6" transform="matrix(0.7071 0.7071 -0.7071 0.7071 678.1689 -1595.5367)" fill="none" stroke="#FFFFFF" stroke-miterlimit="10" width="27" height="26.6"/>
<rect x="1842.6" y="701.6" transform="matrix(0.7071 0.7071 -0.7071 0.7071 1049.1085 -1103.0681)" fill="none" stroke="#FFFFFF" stroke-miterlimit="10" width="27" height="26.6"/>
<rect x="2062.6" y="901.5" transform="matrix(0.7071 0.7071 -0.7071 0.7071 1254.9644 -1200.0536)" fill="none" stroke="#FFFFFF" stroke-miterlimit="10" width="27" height="26.6"/>
<rect x="1761.6" y="866.6" transform="matrix(0.7071 0.7071 -0.7071 0.7071 1142.0569 -997.4664)" fill="none" stroke="#FFFFFF" stroke-miterlimit="10" width="27" height="26.6"/>
<rect x="1970.6" y="759.6" transform="matrix(0.7071 0.7071 -0.7071 0.7071 1127.61 -1176.59)" fill="none" stroke="#FFFFFF" stroke-miterlimit="10" width="27" height="26.6"/>
<rect x="2206.6" y="584.6" transform="matrix(0.7071 0.7071 -0.7071 0.7071 1072.988 -1394.7216)" fill="none" stroke="#FFFFFF" stroke-miterlimit="10" width="27" height="26.6"/>
<rect x="1633.6" y="760.6" transform="matrix(0.7071 0.7071 -0.7071 0.7071 1029.6144 -938.0031)" fill="none" stroke="#FFFFFF" stroke-miterlimit="10" width="27" height="26.6"/>
<rect x="1441.6" y="561.6" transform="matrix(0.7071 0.7071 -0.7071 0.7071 832.6665 -860.5234)" fill="none" stroke="#FFFFFF" stroke-miterlimit="10" width="27" height="26.6"/>
<rect x="1535.6" y="301.6" transform="matrix(0.7071 0.7071 -0.7071 0.7071 676.3508 -1003.1417)" fill="none" stroke="#FFFFFF" stroke-miterlimit="10" width="27" height="26.6"/>
<rect x="897.6" y="350.6" transform="matrix(0.7071 0.7071 -0.7071 0.7071 524.1374 -537.6579)" fill="none" stroke="#FFFFFF" stroke-miterlimit="10" width="27" height="26.6"/>
<rect x="1128.6" y="506.6" transform="matrix(0.7071 0.7071 -0.7071 0.7071 702.1024 -655.3087)" fill="none" stroke="#FFFFFF" stroke-miterlimit="10" width="27" height="26.6"/>
<rect x="1100.6" y="740.6" transform="matrix(0.7071 0.7071 -0.7071 0.7071 859.3638 -566.9742)" fill="none" stroke="#FFFFFF" stroke-miterlimit="10" width="27" height="26.6"/>
<rect x="828.6" y="711.6" transform="matrix(0.7071 0.7071 -0.7071 0.7071 759.1927 -383.1357)" fill="none" stroke="#FFFFFF" stroke-miterlimit="10" width="27" height="26.6"/>
<rect x="847.6" y="104.6" transform="matrix(0.7071 0.7071 -0.7071 0.7071 335.5455 -574.3527)" fill="none" stroke="#FFFFFF" stroke-miterlimit="10" width="27" height="26.6"/>
<rect x="528.6" y="104.6" transform="matrix(0.7071 0.7071 -0.7071 0.7071 242.1147 -348.7866)" fill="none" stroke="#FFFFFF" stroke-miterlimit="10" width="27" height="26.6"/>
<rect x="137.6" y="123.6" transform="matrix(0.7071 0.7071 -0.7071 0.7071 141.0311 -66.7441)" fill="none" stroke="#FFFFFF" stroke-miterlimit="10" width="27" height="26.6"/>
<rect x="211.6" y="766.6" transform="matrix(0.7071 0.7071 -0.7071 0.7071 617.3726 69.2562)" fill="none" stroke="#FFFFFF" stroke-miterlimit="10" width="27" height="26.6"/>
<rect x="337.6" y="970.6" transform="matrix(0.7071 0.7071 -0.7071 0.7071 798.5255 39.9099)" fill="none" stroke="#FFFFFF" stroke-miterlimit="10" width="27" height="26.6"/>
<rect x="337.6" y="912.6" transform="matrix(0.7071 0.7071 -0.7071 0.7071 757.5134 22.9225)" fill="none" stroke="#FFFFFF" stroke-miterlimit="10" width="27" height="26.6"/>
<rect x="32.6" y="951.6" transform="matrix(0.7071 0.7071 -0.7071 0.7071 695.7602 250.0118)" fill="none" stroke="#FFFFFF" stroke-miterlimit="10" width="27" height="26.6"/>
<rect x="674.6" y="542.6" transform="matrix(0.7071 0.7071 -0.7071 0.7071 594.5877 -323.7396)" fill="none" stroke="#FFFFFF" stroke-miterlimit="10" width="27" height="26.6"/>
<rect x="565.6" y="380.6" transform="matrix(0.7071 0.7071 -0.7071 0.7071 448.1122 -294.1128)" fill="none" stroke="#FFFFFF" stroke-miterlimit="10" width="27" height="26.6"/>
<rect x="2829.2" y="528.1" transform="matrix(0.7071 0.7071 -0.7071 0.7071 1222.6967 -1854.5562)" fill="none" stroke="#FFFFFF" stroke-miterlimit="10" width="41.5" height="41"/>
<rect x="2931.2" y="97.1" transform="matrix(0.7071 0.7071 -0.7071 0.7071 947.8092 -2052.9146)" fill="none" stroke="#FFFFFF" stroke-miterlimit="10" width="41.5" height="41"/>
<rect x="2469.2" y="77.2" transform="matrix(0.7071 0.7071 -0.7071 0.7071 798.3536 -1732.0905)" fill="none" stroke="#FFFFFF" stroke-miterlimit="10" width="41.5" height="41"/>
<rect x="2215.2" y="323.2" transform="matrix(0.7071 0.7071 -0.7071 0.7071 897.908 -1480.436)" fill="none" stroke="#FFFFFF" stroke-miterlimit="10" width="41.5" height="41"/>
<rect x="2199.2" y="265.2" transform="matrix(0.7071 0.7071 -0.7071 0.7071 852.2098 -1486.1097)" fill="none" stroke="#FFFFFF" stroke-miterlimit="10" width="41.5" height="41"/>
<rect x="2469.2" y="499.2" transform="matrix(0.7071 0.7071 -0.7071 0.7071 1096.7515 -1608.4924)" fill="none" stroke="#FFFFFF" stroke-miterlimit="10" width="41.5" height="41"/>
<rect x="2300.3" y="888.1" transform="matrix(0.7071 0.7071 -0.7071 0.7071 1322.3171 -1375.059)" fill="none" stroke="#FFFFFF" stroke-miterlimit="10" width="41.5" height="41"/>
<rect x="1934.3" y="704.2" transform="matrix(0.7071 0.7071 -0.7071 0.7071 1085.0137 -1170.15)" fill="none" stroke="#FFFFFF" stroke-miterlimit="10" width="41.5" height="41"/>
<rect x="1854.3" y="440.2" transform="matrix(0.7071 0.7071 -0.7071 0.7071 874.9072 -1190.9037)" fill="none" stroke="#FFFFFF" stroke-miterlimit="10" width="41.5" height="41"/>
<rect x="1876.2" y="48.2" transform="matrix(0.7071 0.7071 -0.7071 0.7071 604.166 -1321.2716)" fill="none" stroke="#FFFFFF" stroke-miterlimit="10" width="41.5" height="41"/>
<rect x="1557.3" y="255.2" transform="matrix(0.7071 0.7071 -0.7071 0.7071 657.1057 -1035.0778)" fill="none" stroke="#FFFFFF" stroke-miterlimit="10" width="41.5" height="41"/>
<rect x="1597.3" y="314.2" transform="matrix(0.7071 0.7071 -0.7071 0.7071 710.5403 -1046.0817)" fill="none" stroke="#FFFFFF" stroke-miterlimit="10" width="41.5" height="41"/>
<rect x="1348.3" y="402.2" transform="matrix(0.7071 0.7071 -0.7071 0.7071 699.8367 -844.2387)" fill="none" stroke="#FFFFFF" stroke-miterlimit="10" width="41.5" height="41"/>
<rect x="1357.3" y="554.2" transform="matrix(0.7071 0.7071 -0.7071 0.7071 809.9525 -806.084)" fill="none" stroke="#FFFFFF" stroke-miterlimit="10" width="41.5" height="41"/>
<rect x="1203.3" y="207.2" transform="matrix(0.7071 0.7071 -0.7071 0.7071 519.4828 -798.8215)" fill="none" stroke="#FFFFFF" stroke-miterlimit="10" width="41.5" height="41"/>
<rect x="1290.3" y="48.2" transform="matrix(0.7071 0.7071 -0.7071 0.7071 432.5345 -906.9086)" fill="none" stroke="#FFFFFF" stroke-miterlimit="10" width="41.5" height="41"/>
<rect x="1363.3" y="934.2" transform="matrix(0.7071 0.7071 -0.7071 0.7071 1080.4094 -699.0297)" fill="none" stroke="#FFFFFF" stroke-miterlimit="10" width="41.5" height="41"/>
<rect x="1615.3" y="631.2" transform="matrix(0.7071 0.7071 -0.7071 0.7071 939.9642 -965.9646)" fill="none" stroke="#FFFFFF" stroke-miterlimit="10" width="41.5" height="41"/>
<rect x="1037.3" y="694.2" transform="matrix(0.7071 0.7071 -0.7071 0.7071 815.2234 -538.8066)" fill="none" stroke="#FFFFFF" stroke-miterlimit="10" width="41.5" height="41"/>
<rect x="928.3" y="460.2" transform="matrix(0.7071 0.7071 -0.7071 0.7071 617.8364 -530.2677)" fill="none" stroke="#FFFFFF" stroke-miterlimit="10" width="41.5" height="41"/>
<rect x="928.3" y="373.2" transform="matrix(0.7071 0.7071 -0.7071 0.7071 556.3184 -555.7488)" fill="none" stroke="#FFFFFF" stroke-miterlimit="10" width="41.5" height="41"/>
<rect x="686.3" y="85.2" transform="matrix(0.7071 0.7071 -0.7071 0.7071 281.7939 -468.9809)" fill="none" stroke="#FFFFFF" stroke-miterlimit="10" width="41.5" height="41"/>
<rect x="558.3" y="67.2" transform="matrix(0.7071 0.7071 -0.7071 0.7071 231.5765 -383.7435)" fill="none" stroke="#FFFFFF" stroke-miterlimit="10" width="41.5" height="41"/>
<rect x="320.3" y="353.2" transform="matrix(0.7071 0.7071 -0.7071 0.7071 364.1014 -131.6873)" fill="none" stroke="#FFFFFF" stroke-miterlimit="10" width="41.5" height="41"/>
<rect x="233.3" y="723.2" transform="matrix(0.7071 0.7071 -0.7071 0.7071 600.2486 38.1988)" fill="none" stroke="#FFFFFF" stroke-miterlimit="10" width="41.5" height="41"/>
<rect x="130.3" y="573.2" transform="matrix(0.7071 0.7071 -0.7071 0.7071 464.0157 67.0975)" fill="none" stroke="#FFFFFF" stroke-miterlimit="10" width="41.5" height="41"/>
<rect x="55.3" y="126.2" transform="matrix(0.7071 0.7071 -0.7071 0.7071 125.9738 -10.7899)" fill="none" stroke="#FFFFFF" stroke-miterlimit="10" width="41.5" height="41"/>
<rect x="13.3" y="19.2" transform="matrix(0.7071 0.7071 -0.7071 0.7071 38.0124 -12.4304)" fill="none" stroke="#FFFFFF" stroke-miterlimit="10" width="41.5" height="41"/>
<rect x="599.3" y="665.2" transform="matrix(0.7071 0.7071 -0.7071 0.7071 666.4331 -237.5888)" fill="none" stroke="#FFFFFF" stroke-miterlimit="10" width="41.5" height="41"/>
<rect x="792.3" y="846.2" transform="matrix(0.7071 0.7071 -0.7071 0.7071 850.9459 -321.0474)" fill="none" stroke="#FFFFFF" stroke-miterlimit="10" width="41.5" height="41"/>
<rect x="928.3" y="946.2" transform="matrix(0.7071 0.7071 -0.7071 0.7071 961.489 -387.925)" fill="none" stroke="#FFFFFF" stroke-miterlimit="10" width="41.5" height="41"/>
<rect x="2355.4" y="829.5" transform="matrix(0.7071 0.7071 -0.7071 0.7071 1317.5454 -1439.8832)" fill="none" stroke="#FFFFFF" stroke-miterlimit="10" width="83" height="82"/>
<rect x="2207.4" y="621.5" transform="matrix(0.7071 0.7071 -0.7071 0.7071 1127.1206 -1396.1521)" fill="none" stroke="#FFFFFF" stroke-miterlimit="10" width="83" height="82"/>
<rect x="2063.4" y="361.5" transform="matrix(0.7071 0.7071 -0.7071 0.7071 901.098 -1370.4797)" fill="none" stroke="#FFFFFF" stroke-miterlimit="10" width="83" height="82"/>
<rect x="1921.4" y="381.5" transform="matrix(0.7071 0.7071 -0.7071 0.7071 873.6501 -1264.2131)" fill="none" stroke="#FFFFFF" stroke-miterlimit="10" width="83" height="82"/>
<rect x="1764.4" y="68.5" transform="matrix(0.7071 0.7071 -0.7071 0.7071 606.3434 -1244.8713)" fill="none" stroke="#FFFFFF" stroke-miterlimit="10" width="83" height="82"/>
<rect x="1635.4" y="673.5" transform="matrix(0.7071 0.7071 -0.7071 0.7071 996.3589 -976.4585)" fill="none" stroke="#FFFFFF" stroke-miterlimit="10" width="83" height="82"/>
<rect x="1773.4" y="913.5" transform="matrix(0.7071 0.7071 -0.7071 0.7071 1206.4823 -1003.7462)" fill="none" stroke="#FFFFFF" stroke-miterlimit="10" width="83" height="82"/>
<rect x="1855.4" y="751.5" transform="matrix(0.7071 0.7071 -0.7071 0.7071 1115.9482 -1109.1763)" fill="none" stroke="#FFFFFF" stroke-miterlimit="10" width="83" height="82"/>
<rect x="1374.4" y="464.5" transform="matrix(0.7071 0.7071 -0.7071 0.7071 772.1309 -853.1177)" fill="none" stroke="#FFFFFF" stroke-miterlimit="10" width="83" height="82"/>
<rect x="1284.4" y="855.5" transform="matrix(0.7071 0.7071 -0.7071 0.7071 1022.2488 -674.9598)" fill="none" stroke="#FFFFFF" stroke-miterlimit="10" width="83" height="82"/>
<rect x="578.4" y="105.5" transform="matrix(0.7071 0.7071 -0.7071 0.7071 285.143 -395.4091)" fill="none" stroke="#FFFFFF" stroke-miterlimit="10" width="83" height="82"/>
<rect x="830.4" y="391.5" transform="matrix(0.7071 0.7071 -0.7071 0.7071 561.1821 -489.8339)" fill="none" stroke="#FFFFFF" stroke-miterlimit="10" width="83" height="82"/>
<rect x="611.4" y="581.5" transform="matrix(0.7071 0.7071 -0.7071 0.7071 631.3897 -279.3296)" fill="none" stroke="#FFFFFF" stroke-miterlimit="10" width="83" height="82"/>
<rect x="849.4" y="738.5" transform="matrix(0.7071 0.7071 -0.7071 0.7071 812.112 -401.6373)" fill="none" stroke="#FFFFFF" stroke-miterlimit="10" width="83" height="82"/>
<rect x="995.4" y="898.5" transform="matrix(0.7071 0.7071 -0.7071 0.7071 968.0101 -458.0126)" fill="none" stroke="#FFFFFF" stroke-miterlimit="10" width="83" height="82"/>
<rect x="375.4" y="913.5" transform="matrix(0.7071 0.7071 -0.7071 0.7071 797.0271 -15.2148)" fill="none" stroke="#FFFFFF" stroke-miterlimit="10" width="83" height="82"/>
<rect x="241.4" y="391.5" transform="matrix(0.7071 0.7071 -0.7071 0.7071 388.672 -73.3496)" fill="none" stroke="#FFFFFF" stroke-miterlimit="10" width="83" height="82"/>
<rect x="63.4" y="479.5" transform="matrix(0.7071 0.7071 -0.7071 0.7071 398.7634 78.2889)" fill="none" stroke="#FFFFFF" stroke-miterlimit="10" width="83" height="82"/>
<rect x="63.4" y="35.5" transform="matrix(0.7071 0.7071 -0.7071 0.7071 84.8093 -51.7527)" fill="none" stroke="#FFFFFF" stroke-miterlimit="10" width="83" height="82"/>
<rect x="1336.4" y="76.5" transform="matrix(0.7071 0.7071 -0.7071 0.7071 486.6449 -939.8878)" fill="none" stroke="#FFFFFF" stroke-miterlimit="10" width="83" height="82"/>
<rect x="1230.4" y="115.5" transform="matrix(0.7071 0.7071 -0.7071 0.7071 483.176 -853.5121)" fill="none" stroke="#FFFFFF" stroke-miterlimit="10" width="83" height="82"/>
<rect x="2355.4" y="10.5" transform="matrix(0.7071 0.7071 -0.7071 0.7071 738.4272 -1679.7572)" fill="none" stroke="#FFFFFF" stroke-miterlimit="10" width="83" height="82"/>
<rect x="2536.4" y="439.5" transform="matrix(0.7071 0.7071 -0.7071 0.7071 1094.7874 -1682.0947)" fill="none" stroke="#FFFFFF" stroke-miterlimit="10" width="83" height="82"/>
<rect x="2860.4" y="161.5" transform="matrix(0.7071 0.7071 -0.7071 0.7071 993.1077 -1992.6188)" fill="none" stroke="#FFFFFF" stroke-miterlimit="10" width="83" height="82"/>
<rect x="2896.4" y="478.5" transform="matrix(0.7071 0.7071 -0.7071 0.7071 1227.8035 -1925.2296)" fill="none" stroke="#FFFFFF" stroke-miterlimit="10" width="83" height="82"/>
<rect x="2478.4" y="556.5" transform="matrix(0.7071 0.7071 -0.7071 0.7071 1160.5311 -1606.8151)" fill="none" stroke="#FFFFFF" stroke-miterlimit="10" width="83" height="82"/>
</svg>
