<svg width="56" height="56" viewBox="0 0 56 56" fill="none" xmlns="http://www.w3.org/2000/svg">
<path d="M52.6586 27.8544C53.4733 27.0057 54.299 26.0659 55.1022 25.0406C55.2674 24.8185 55.2162 24.4824 54.994 24.3002C53.9744 23.4857 53.0575 22.7395 51.9639 22.1243C52.5846 21.1048 53.2396 19.977 53.6954 18.8208C53.8091 18.5645 53.6895 18.2455 53.439 18.1201C52.3399 17.5278 51.1323 17.0835 49.9932 16.7019C50.4317 15.5286 50.6651 14.3609 50.916 13.0851C50.9671 12.8059 50.7961 12.5098 50.5172 12.4471C49.2356 12.1852 48.0336 11.9744 46.8318 11.8719C46.8719 11.2795 46.9061 10.67 46.9172 10.0435C46.9289 9.42268 46.9514 8.762 46.8888 8.14682C46.8718 7.86769 46.6154 7.63991 46.3365 7.64558C45.6926 7.64558 45.0718 7.66266 44.4625 7.69117C43.8359 7.74809 43.2149 7.83361 42.617 7.92471C42.5315 7.32661 42.4404 6.70011 42.3093 6.09069C42.1669 5.49826 42.0075 4.8945 41.8251 4.27941C41.7455 4.00604 41.455 3.82943 41.1815 3.89211C39.9456 4.1769 38.7324 4.60404 37.633 5.01419C37.1889 3.89777 36.6363 2.79853 36.0156 1.64803C35.8787 1.39741 35.5427 1.3234 35.2922 1.45433C34.7168 1.75054 34.1645 2.05809 33.6346 2.36563C33.3727 2.5194 33.1106 2.66751 32.8542 2.83836L32.0969 3.37944C31.4019 2.41689 30.6273 1.35172 29.7501 0.486014C29.5565 0.280986 29.2147 0.2639 28.9981 0.446179C28.5083 0.861993 28.0414 1.2493 27.597 1.69353C27.1528 2.14351 26.7312 2.59916 26.3326 3.04915C25.8826 2.65042 25.4098 2.21761 24.9201 1.84739C24.4303 1.48284 23.9175 1.12404 23.3821 0.7709C23.1487 0.611464 22.8125 0.662629 22.6417 0.884836C22.2543 1.36333 21.9069 1.93291 21.5766 2.45115C21.2406 2.98656 20.933 3.51056 20.6423 4.02889C19.583 3.44221 18.4608 2.97514 17.2421 2.49099C16.9687 2.37139 16.6725 2.54224 16.5585 2.79853C16.3137 3.39662 16.0856 3.98329 15.8807 4.56421C15.7781 4.85466 15.6758 5.13946 15.5845 5.42425L15.3509 6.32989C14.1947 6.03367 12.9302 5.72613 11.6942 5.62361C11.4094 5.58944 11.1361 5.79447 11.0905 6.0736C10.8399 7.29254 10.7659 8.58548 10.7204 9.77591L9.79197 9.7474C9.48433 9.7474 9.18821 9.76449 8.88058 9.78157C8.2654 9.81574 7.6388 9.86134 6.99521 9.92968C6.71626 9.95819 6.47121 10.2031 6.49963 10.4936C6.61366 11.798 6.74468 13.0055 7.00106 14.1902C6.42005 14.3212 5.82771 14.4636 5.21811 14.6287C4.6202 14.7939 3.98803 14.9648 3.41259 15.1983C3.15064 15.2951 3.00263 15.6027 3.08806 15.8761C3.27024 16.4855 3.46376 17.0779 3.66906 17.6532C3.90826 18.2398 4.16464 18.8094 4.42084 19.3562C3.87409 19.6068 3.29894 19.8802 2.75191 20.1764C2.22792 20.4839 1.69845 20.8143 1.16304 21.1674C0.923557 21.3212 0.838221 21.6516 0.975 21.8908C1.26536 22.4376 1.64719 22.9787 1.99457 23.4913C2.35337 24.0039 2.71793 24.4994 3.0823 24.9665C2.56416 25.3367 2.15391 25.7411 1.68703 26.1569C1.23704 26.5784 0.781207 27.017 0.32565 27.484C0.228893 27.5866 0.171879 27.7232 0.166307 27.8543C0.171879 27.991 0.228893 28.1277 0.32565 28.2302C0.781207 28.6973 1.23704 29.1359 1.68703 29.5574C2.15401 29.9732 2.56416 30.3776 3.0823 30.742C2.71793 31.2148 2.35337 31.7046 1.99457 32.223C1.64719 32.7356 1.26536 33.2767 0.975 33.8235C0.838129 34.0627 0.923557 34.3931 1.16304 34.5469C1.69845 34.9 2.22792 35.2304 2.75191 35.5379C3.29894 35.834 3.87409 36.1018 4.42084 36.3581C4.16474 36.9049 3.90826 37.4745 3.66906 38.0611C3.46385 38.6364 3.27024 39.2287 3.08806 39.8382C3.00263 40.1116 3.15064 40.4191 3.41259 40.516C3.98803 40.7495 4.6202 40.9204 5.21811 41.0856C5.82771 41.2508 6.42014 41.3931 7.00106 41.5241C6.74468 42.7089 6.61366 43.9164 6.49963 45.2207C6.47131 45.5111 6.71626 45.7561 6.99521 45.7846C7.6388 45.853 8.2654 45.8985 8.88058 45.9327C9.18821 45.9498 9.48433 45.9669 9.79197 45.9669L10.7204 45.9327C10.7659 47.1288 10.84 48.4217 11.0905 49.6407C11.1361 49.9198 11.4094 50.1248 11.6942 50.0907C12.9302 49.9882 14.1948 49.6805 15.3509 49.3844L15.5845 50.29C15.6757 50.5748 15.7781 50.8596 15.8807 51.1501C16.0856 51.7311 16.3137 52.3178 16.5585 52.9158C16.6725 53.172 16.9687 53.3429 17.2421 53.2234C18.4608 52.7392 19.583 52.2722 20.6423 51.6855C20.933 52.2038 21.2405 52.7278 21.5766 53.2632C21.9069 53.7816 22.2543 54.3511 22.6417 54.8295C22.8125 55.0517 23.1487 55.1029 23.3821 54.9434C23.9175 54.5903 24.4303 54.2314 24.9201 53.8669C25.4098 53.4967 25.8826 53.0638 26.3326 52.6594C26.7312 53.115 27.1528 53.5707 27.597 54.0207C28.0414 54.465 28.5083 54.8523 28.9981 55.268C29.2147 55.4503 29.5565 55.4332 29.7443 55.2282C30.6273 54.3567 31.4019 53.2973 32.0968 52.3347L32.8542 52.8758C33.1105 53.0467 33.3726 53.1891 33.6345 53.3486C34.1644 53.6562 34.7167 53.9637 35.2921 54.2599C35.5427 54.3909 35.8787 54.3168 36.0155 54.0662C36.6362 52.9156 37.1888 51.8163 37.633 50.7C38.7324 51.1101 39.9455 51.5373 41.1814 51.8221C41.4548 51.8848 41.7454 51.7082 41.825 51.4348C42.0075 50.8196 42.1668 50.2158 42.3092 49.6235C42.4403 49.0141 42.5314 48.3876 42.6169 47.7895C43.2148 47.8807 43.8359 47.966 44.4624 48.023C45.0717 48.0515 45.6925 48.0686 46.3364 48.0686C46.6153 48.0743 46.8718 47.8465 46.8887 47.5674C46.9513 46.9522 46.9287 46.2915 46.9171 45.6707C46.9059 45.0442 46.8718 44.4347 46.8318 43.8423C48.0335 43.7398 49.2355 43.529 50.5171 43.2614C50.796 43.2044 50.9671 42.9083 50.9159 42.6291C50.6651 41.3533 50.4317 40.1857 49.9931 39.0124C51.1322 38.6307 52.3399 38.1865 53.4389 37.5941C53.6895 37.4688 53.8091 37.1498 53.6953 36.8935C53.2395 35.7373 52.5845 34.6095 51.9638 33.59C53.0574 32.9749 53.9742 32.2287 54.9939 31.4141C55.2161 31.2319 55.2673 30.8958 55.1021 30.6737C54.299 29.6486 53.4733 28.7087 52.6586 27.8544ZM52.539 32.0522C52.0379 32.3997 51.5823 32.7414 51.0412 33.0376C50.9216 33.106 50.8475 33.2028 50.8134 33.3168C50.7847 33.4307 50.8075 33.556 50.876 33.6699C51.1949 34.1655 51.5026 34.6895 51.8101 35.2306C52.0949 35.766 52.3399 36.3128 52.5902 36.8881C52.0323 37.1671 51.4797 37.4235 50.9329 37.657C50.3463 37.8735 49.771 38.0728 49.2071 38.2551C49.0817 38.2949 48.9849 38.3747 48.9335 38.483H48.9393C48.8879 38.5855 48.8767 38.7165 48.9279 38.8418C49.1501 39.417 49.2867 39.9753 49.4405 40.5619C49.5887 41.1485 49.7253 41.7523 49.8507 42.3788C48.6375 42.6579 47.39 42.8117 46.2453 42.9256C46.1198 42.9427 46.0061 42.994 45.9263 43.0852C45.8579 43.1592 45.8181 43.2617 45.8181 43.3756V43.4155C45.8693 44.0021 45.9035 44.6002 45.9263 45.2153C45.9377 45.5228 45.9547 45.8418 45.9433 46.1494L45.8977 47.0664C44.6334 47.0379 43.46 46.9924 42.2583 46.7645C42.1272 46.7418 42.0018 46.776 41.9106 46.8443C41.8197 46.9126 41.7513 47.0266 41.7343 47.1576C41.6088 48.3765 41.3185 49.5043 40.9822 50.7289L40.0939 50.5124C39.7919 50.427 39.4958 50.3245 39.2051 50.2276C38.6185 50.0283 38.0548 49.8232 37.5136 49.6068C37.394 49.5555 37.2686 49.5613 37.1604 49.6125C37.0581 49.6695 36.9724 49.7606 36.9212 49.8745C36.4826 50.9396 35.9756 52.0902 35.3549 53.1723C34.7967 52.8704 34.2557 52.5629 33.7374 52.2554C33.219 51.9307 32.7293 51.6516 32.2394 51.2643C32.131 51.1845 32.0058 51.156 31.8918 51.1731C31.778 51.1902 31.6699 51.2585 31.5956 51.3611C31.2596 51.8509 30.9064 52.3408 30.5248 52.8363C30.1489 53.3261 29.7389 53.7476 29.3117 54.209C28.8388 53.8046 28.383 53.3945 27.9503 52.9844C27.5176 52.5686 27.1073 52.0844 26.7199 51.6458C26.6346 51.5433 26.515 51.4864 26.4012 51.4806H26.3784C26.2699 51.4806 26.1562 51.5262 26.065 51.6117C25.1878 52.4717 24.2366 53.1325 23.1943 53.8673L22.6476 53.1268C22.4768 52.8762 22.3116 52.5971 22.1523 52.3408C21.833 51.811 21.5312 51.287 21.2579 50.7745C21.1953 50.6549 21.0985 50.5808 20.9845 50.5524C20.8708 50.5238 20.7395 50.5467 20.6257 50.6036C19.6061 51.139 18.4898 51.6801 17.3109 52.1244C16.8436 50.9283 16.4338 49.8176 16.149 48.6614C16.1204 48.5304 16.0405 48.4222 15.9438 48.3652C15.8753 48.3254 15.7958 48.3025 15.716 48.3025C15.6762 48.3025 15.6305 48.3082 15.5905 48.3196C15.0209 48.479 14.4344 48.6271 13.825 48.7638C13.2268 48.8834 12.6344 48.9575 12.0137 49.0372C11.9111 48.4164 11.8201 47.8184 11.7517 47.2203C11.712 46.5994 11.6833 45.99 11.6777 45.3977C11.6719 45.2667 11.6207 45.1527 11.5354 45.0787C11.4555 45.0046 11.3473 44.9648 11.2333 44.9648H11.1936C10.5784 45.0104 10.0088 44.9819 9.39946 44.9648C8.78986 44.9363 8.17496 44.8964 7.53694 44.8394C7.62236 43.5921 7.82173 42.356 8.03808 41.2283C8.06093 41.1029 8.04951 40.9777 7.98692 40.8752L7.87846 40.9435L7.98107 40.8695C7.91848 40.7726 7.82173 40.6986 7.69628 40.6701C6.56296 40.4309 5.30976 40.1576 4.17616 39.7132C4.55799 38.5057 4.94511 37.3951 5.50912 36.3071C5.56614 36.1875 5.57171 36.0622 5.53196 35.954C5.49222 35.8458 5.40651 35.749 5.28691 35.6977C4.15359 35.2307 3.15686 34.6212 2.08028 33.9491C2.65544 32.8783 3.44723 31.8588 4.15916 30.9474C4.24459 30.8449 4.27319 30.7253 4.25592 30.6114C4.23893 30.4918 4.17059 30.3835 4.06231 30.3038C3.16234 29.5747 2.2568 28.7603 1.34541 27.8546C2.2568 26.9548 3.16234 26.1402 4.06231 25.4112C4.17049 25.3314 4.23893 25.2232 4.25592 25.1036C4.27319 24.9897 4.23893 24.8701 4.15916 24.7676C3.44723 23.8563 2.65544 22.8311 2.08028 21.7659C3.15686 21.0938 4.15359 20.4844 5.28691 20.0173C5.40651 19.9661 5.49213 19.8692 5.53196 19.761C5.57171 19.6528 5.56614 19.5218 5.50912 19.4079C4.94511 18.32 4.55799 17.2093 4.17616 16.0018C5.30976 15.5576 6.56296 15.2842 7.69628 15.0392C7.8273 15.0165 7.92406 14.9424 7.98692 14.8456V14.84C8.04951 14.7431 8.06093 14.6121 8.03808 14.4868C7.82173 13.3591 7.62227 12.1231 7.53694 10.8757C8.17496 10.8188 8.78986 10.7789 9.39946 10.7504C10.0088 10.7334 10.5784 10.7049 11.1936 10.7504C11.3246 10.7619 11.4442 10.7163 11.5354 10.6365C11.6207 10.5624 11.672 10.4429 11.6777 10.3119C11.6833 9.72521 11.7119 9.11579 11.7517 8.49494C11.8202 7.89685 11.9111 7.29885 12.0137 6.67801C12.6344 6.75777 13.2268 6.83178 13.825 6.95147C14.4344 7.08816 15.0209 7.23626 15.5905 7.3957C15.716 7.42987 15.8414 7.41279 15.9438 7.35011C16.0405 7.28743 16.1148 7.18491 16.149 7.05399C16.4338 5.89773 16.8437 4.78706 17.3109 3.59088C18.4898 4.0352 19.6061 4.57628 20.6257 5.1116C20.7395 5.16861 20.8708 5.19136 20.9845 5.16286C21.0985 5.13435 21.1953 5.05459 21.2579 4.94074C21.5312 4.42817 21.833 3.90409 22.1523 3.37443C22.3116 3.11814 22.4768 2.83901 22.6476 2.58839L23.1943 1.84795C24.2367 2.58273 25.1879 3.24341 26.065 4.10345C26.1618 4.19454 26.2816 4.24014 26.4012 4.23447C26.515 4.22881 26.6346 4.17179 26.7199 4.06928C27.1073 3.62496 27.5176 3.14656 27.9503 2.73074C28.383 2.32069 28.8388 1.91054 29.3117 1.50614C29.7388 1.96755 30.1488 2.38894 30.5248 2.87885C30.9064 3.37434 31.2596 3.86425 31.5956 4.35407C31.6699 4.46225 31.778 4.52493 31.8918 4.54201C32.0058 4.5591 32.131 4.53069 32.2394 4.45092C32.7292 4.06361 33.219 3.78449 33.7374 3.45986C34.2558 3.15222 34.7967 2.84468 35.3549 2.5428C35.9756 3.62505 36.4826 4.77555 36.9212 5.84071C36.9724 5.95465 37.0581 6.04574 37.1604 6.10266V6.097C37.2686 6.14826 37.394 6.15968 37.5136 6.10833C38.0548 5.89188 38.6186 5.68685 39.2051 5.48749C39.4958 5.39064 39.792 5.28812 40.0939 5.20269L40.9822 4.98624C41.3185 6.21084 41.6088 7.33859 41.7343 8.55753C41.7513 8.69421 41.8196 8.80249 41.9106 8.87083C41.9849 8.92209 42.0758 8.95626 42.1784 8.95626C42.2012 8.95626 42.2298 8.95626 42.2583 8.95059C43.46 8.72281 44.6334 8.67722 45.8977 8.64871L45.9433 9.56577C45.9547 9.87341 45.9377 10.1924 45.9263 10.4999C45.9035 11.1151 45.8693 11.7131 45.8181 12.2998C45.8067 12.4308 45.8465 12.5447 45.9263 12.6302C46.0062 12.7156 46.1199 12.7726 46.2453 12.7897C47.39 12.9036 48.6376 13.0574 49.8507 13.3364C49.7253 13.963 49.5888 14.5667 49.4405 15.1534C49.2867 15.74 49.1501 16.2982 48.9279 16.8735C48.8767 16.9988 48.8879 17.1298 48.9335 17.2323H48.9393C48.9905 17.3405 49.0818 17.4203 49.2071 17.4601C49.7709 17.6424 50.3463 17.8418 50.9329 18.0582C51.4796 18.2917 52.0323 18.548 52.5902 18.8272C52.3399 19.4024 52.0949 19.9492 51.8101 20.4847C51.5025 21.0257 51.1949 21.5498 50.876 22.0453C50.802 22.1592 50.7848 22.2845 50.8134 22.3984C50.8475 22.5066 50.9216 22.6092 51.0412 22.6776C51.5823 22.9738 52.0379 23.3155 52.539 23.663C53.029 24.0161 53.5189 24.3921 54.02 24.7907C53.6782 25.2862 53.2282 25.7704 52.8297 26.226C52.4253 26.6817 52.015 27.1202 51.6052 27.5304C51.5081 27.6215 51.4683 27.7412 51.4739 27.855V27.8778C51.4739 27.986 51.5195 28.1 51.6052 28.1854C52.0151 28.5955 52.4254 29.034 52.8297 29.4898C53.2282 29.9454 53.6782 30.4296 54.02 30.9251C53.5189 31.3231 53.029 31.6934 52.539 32.0522ZM52.5176 30.7496C51.958 31.1709 51.4021 31.5639 50.8525 31.929L51.0591 30.581C51.1027 30.3574 51.1225 30.131 51.1261 29.9029L51.1592 29.2209L51.8576 29.9661C52.0971 30.2222 52.3199 30.4837 52.5176 30.7496ZM54.3454 33.3417C54.6291 33.1319 54.9077 32.9137 55.1909 32.6891L55.0643 33.4893L54.8645 34.2749L54.4596 35.8447C54.127 35.1816 53.7849 34.5456 53.4356 33.9374L54.3454 33.3417ZM50.2399 34.5832C50.6034 35.1657 50.8682 35.7477 51.1738 36.3723C50.5399 36.6553 49.9495 36.9252 49.3115 37.1442C49.5004 36.7311 49.6302 36.2935 49.794 35.8702C49.9384 35.4399 50.1345 35.0256 50.2399 34.5832ZM51.3415 39.6916C52.0008 39.4506 52.6728 39.184 53.355 38.8905L52.6527 40.3514L52.2992 41.0807C52.1698 41.3173 52.023 41.5447 51.8853 41.7769C51.8113 41.4221 51.7427 41.0785 51.6534 40.7318L51.3415 39.6916ZM48.0731 39.5714C48.26 40.2045 48.4335 40.8629 48.5918 41.5454C47.9398 41.6942 47.2231 41.7651 46.5691 41.8438C46.831 41.4726 47.1384 41.1319 47.3659 40.7375L48.0731 39.5714ZM47.9865 44.8137C48.701 44.7465 49.3768 44.6104 50.1 44.4765C49.7693 44.9029 49.4686 45.3543 49.1107 45.758L48.0224 46.9573C48.0303 46.2225 48.0177 45.5074 47.9865 44.8137ZM44.8191 43.9343L44.8808 44.9599L44.863 45.9659C44.1694 45.9349 43.4966 45.8845 42.8461 45.8171L43.8554 44.8983L44.3618 44.4409L44.8191 43.9343ZM43.5201 49.0019C44.2162 49.0805 44.9607 49.173 45.6791 49.1896C45.2756 49.5477 44.8242 49.8482 44.3976 50.1789C43.9582 50.4918 43.548 50.8479 43.0824 51.1223C43.2787 50.4393 43.3958 49.6902 43.5201 49.0019ZM39.4924 48.1521L40.6585 47.4447C40.5384 48.088 40.3955 48.7481 40.2278 49.4228C39.8976 49.3344 39.5786 49.2518 39.2571 49.1491C38.9292 49.035 38.6078 48.9176 38.2929 48.7974L38.9081 48.5033C39.1072 48.3941 39.2971 48.2683 39.4924 48.1521ZM38.2295 52.0861C38.8847 52.3139 39.5661 52.5298 40.2725 52.7318L38.8116 53.4339C38.3199 53.6567 37.802 53.8184 37.2978 54.0118C37.6349 53.3585 37.9581 52.7468 38.2295 52.0861ZM34.5041 50.3187C34.9466 50.2132 35.361 50.0174 35.7912 49.873C35.5284 50.4772 35.2544 51.1427 34.9246 51.7253C34.3167 51.3762 33.7359 51.0193 33.1839 50.657L34.5041 50.3187ZM33.2626 54.4242L34.196 54.9436L33.4106 55.1432L32.6105 55.2697L31.0082 55.5133C31.4861 54.9472 31.9358 54.3832 32.3568 53.8236C32.6519 54.025 32.9544 54.2287 33.2626 54.4242ZM29.824 51.2052C30.0521 51.2015 30.2785 51.1818 30.5021 51.1381C30.3065 51.4249 30.1013 51.6885 29.8872 51.9366L29.2264 52.704C28.7155 52.2398 28.233 51.7743 27.7783 51.31L29.1419 51.2384L29.824 51.2052ZM27.7782 55.7143L26.1616 55.6355L25.3531 55.5933C25.083 55.586 24.8146 55.562 24.5482 55.5133C24.8427 55.3189 25.1322 55.099 25.4165 54.8619L26.2458 54.1697C26.7286 54.6842 27.2392 55.1999 27.7782 55.7143ZM23.7063 50.9314L25.0543 51.138C24.549 51.554 24.015 51.968 23.4529 52.3775C23.2565 52.0994 23.0664 51.8261 22.8845 51.548C22.707 51.2493 22.5362 50.9522 22.3727 50.6571L23.0321 50.829L23.7063 50.9314ZM7.98673 40.8693V40.875L7.87828 40.9433L7.98089 40.8693H7.98673ZM20.2112 53.132C20.5664 53.7289 20.9493 54.3335 21.3604 54.9436L19.7907 54.5386C19.2659 54.4085 18.7698 54.1856 18.2586 54.0118C18.9372 53.7258 19.5735 53.479 20.2112 53.132ZM18.4911 49.3904C18.9041 49.5793 19.3419 49.7091 19.7652 49.8731C19.1744 50.1689 18.5424 50.4891 17.9091 50.7383C17.6682 50.0788 17.4535 49.4311 17.2635 48.7974L18.4911 49.3904ZM14.9037 51.7324L15.2838 52.7317L14.5546 52.3782C14.3179 52.2488 14.0907 52.1021 13.8585 51.9645L12.4743 51.1224C13.2041 50.9955 13.9111 50.852 14.5935 50.6938C14.6909 51.036 14.7896 51.391 14.9037 51.7324ZM13.7915 46.6479C14.1628 46.9099 14.5034 47.2172 14.8979 47.4447C14.2343 47.6259 13.6005 47.7115 12.9141 47.8249C12.8257 47.1358 12.7341 46.4952 12.7103 45.817C13.0489 46.1206 13.4333 46.3681 13.7915 46.6479ZM9.68565 47.0336C9.72818 47.7338 9.7916 48.453 9.87731 49.1896L8.67806 48.1012L8.08015 47.555L7.53424 46.9572L8.59941 47.0359L9.68565 47.0336ZM9.81834 42.9252L10.7373 43.9342C10.0759 43.9329 9.39426 43.912 8.69421 43.8694C8.74705 43.1944 8.87501 42.4945 8.98736 41.8438C9.26714 42.202 9.51498 42.5865 9.81834 42.9252ZM7.98673 40.875L7.87828 40.9433L7.98089 40.8693C7.98674 40.8693 7.98673 40.875 7.98673 40.875ZM3.67092 41.7768C4.37431 41.9938 5.06424 42.1856 5.73894 42.3533C5.58907 43.0644 5.53596 43.7443 5.45638 44.4764C5.14354 44.0368 4.78753 43.6267 4.51304 43.161L3.67092 41.7768ZM7.13208 38.9869C7.24137 39.186 7.3671 39.3761 7.48336 39.5714C7.15548 39.4986 6.81423 39.4249 6.48635 39.3359L5.52686 39.0317C5.75436 38.3764 5.99467 37.7469 6.24492 37.1441L6.83819 38.3717L7.13208 38.9869ZM1.09664 35.8448C1.69566 36.2293 2.37928 36.5578 3.00309 36.8746C2.72694 37.5192 2.42794 38.2048 2.20155 38.8905C1.97879 38.3988 1.81694 37.8811 1.62361 37.3768C1.44987 36.8655 1.22683 36.3695 1.09664 35.8448ZM4.97835 33.2627L5.31654 34.5832C4.73609 34.2829 4.14654 33.9554 3.54965 33.6002L4.08748 32.7509C4.28861 32.4706 4.49772 32.1959 4.70405 31.929L4.80638 32.6032L4.97835 33.2627ZM1.58061 30.9184C1.17093 31.4804 0.765421 32.0708 0.365857 32.6891L0.122107 31.0871C0.07345 30.8208 0.0494929 30.5522 0.0419714 30.2823L0 29.474L0.773407 30.219C1.02412 30.461 1.29053 30.6944 1.58061 30.9184ZM4.39706 29.2208C3.88589 28.7944 3.37192 28.3399 2.8574 27.8571C3.37192 27.3745 3.88589 26.9199 4.39706 26.4934L4.32556 27.8571L4.39706 29.2208ZM0.7735 25.4952L9.28559e-05 26.2403L0.0420643 25.432C0.0495857 25.162 0.0735429 24.8935 0.1222 24.6272L0.365857 23.025C0.765514 23.6434 1.17102 24.2338 1.58061 24.7959C1.29053 25.0199 1.02412 25.2532 0.7735 25.4952ZM3.54965 22.1142C4.14644 21.7588 4.73636 21.4315 5.31654 21.1311L4.97835 22.4516L4.80647 23.1112L4.70414 23.7854C4.49781 23.5186 4.28861 23.2439 4.08757 22.9636L3.54965 22.1142ZM3.00319 18.8397C2.37937 19.1565 1.69576 19.4849 1.09674 19.8695C1.22692 19.3447 1.44996 18.8487 1.62379 18.3375C1.81712 17.8333 1.97897 17.3154 2.20174 16.8238C2.42803 17.5095 2.72694 18.1951 3.00319 18.8397ZM6.48626 16.3784C6.81414 16.2894 7.15539 16.2156 7.48326 16.1429C7.36701 16.3382 7.24128 16.5282 7.13199 16.7274L6.838 17.3425L6.24474 18.5701C5.99439 17.9673 5.75417 17.3379 5.52667 16.6826L6.48626 16.3784ZM5.73894 13.361C5.06424 13.5287 4.37422 13.7204 3.67092 13.9375L4.51304 12.5532C4.78753 12.0875 5.14354 11.6773 5.45638 11.2378C5.53596 11.9698 5.58907 12.6498 5.73894 13.361ZM8.69421 11.8449C9.39426 11.8023 10.0759 11.7813 10.7373 11.78L9.81834 12.7891C9.51489 13.1278 9.26714 13.5123 8.98736 13.8704C8.87501 13.2198 8.74705 12.5199 8.69421 11.8449ZM8.59941 8.67824L7.53424 8.75699L8.08015 8.15917L8.67806 7.61299L9.87731 6.5247C9.7916 7.26124 9.72827 7.98051 9.68565 8.68075L8.59941 8.67824ZM12.914 7.88942C13.6004 8.0028 14.2343 8.08841 14.8978 8.26958C14.5034 8.49708 14.1628 8.80444 13.7914 9.06639C13.4332 9.34616 13.0488 9.59372 12.7101 9.89727C12.7341 9.21895 12.8256 8.57851 12.914 7.88942ZM14.5936 5.0206C13.9111 4.86237 13.2042 4.71881 12.4744 4.59197L13.8586 3.74985C14.0908 3.61224 14.318 3.46561 14.5547 3.33608L15.2839 2.98257L14.9038 3.9819C14.7896 4.32324 14.6909 4.67824 14.5936 5.0206ZM17.909 4.97612C18.5425 5.22526 19.1744 5.54543 19.7651 5.84127C19.3418 6.00526 18.9043 6.13507 18.4914 6.32394L17.2635 6.91702C17.4534 6.28327 17.6681 5.63559 17.909 4.97612ZM20.2112 2.58226C19.5734 2.23526 18.9372 1.98854 18.2586 1.70254C18.7698 1.52871 19.2659 1.30576 19.7907 1.17566L21.3604 0.770714C20.9493 1.38079 20.5664 1.98547 20.2112 2.58226ZM23.4529 3.33682C24.015 3.74632 24.549 4.16019 25.0543 4.57628L23.7063 4.78289L23.0322 4.8854L22.3728 5.05728C22.5363 4.76218 22.7071 4.46513 22.8845 4.16641C23.0664 3.88821 23.2566 3.61502 23.4529 3.33682ZM25.4164 0.852429C25.1322 0.615364 24.8426 0.395479 24.5484 0.201129C24.8145 0.152379 25.0829 0.128421 25.353 0.121086L26.1615 0.0789286L27.7782 0C27.2395 0.514429 26.7286 1.03006 26.2458 1.54459L25.4164 0.852429ZM29.8871 3.7778C30.1012 4.02591 30.3065 4.28944 30.502 4.57628C30.2784 4.53254 30.052 4.51276 29.8239 4.50905L29.142 4.47599L27.7781 4.4044C28.2328 3.94011 28.7153 3.47462 29.2262 3.01034L29.8871 3.7778ZM32.3568 1.89066C31.9357 1.33111 31.486 0.767093 31.0082 0.201036L32.6105 0.4446L33.4106 0.571071L34.196 0.770714L33.263 1.29006C32.9544 1.48562 32.6519 1.68926 32.3568 1.89066ZM34.9246 3.98896C35.2544 4.57145 35.5283 5.23705 35.7912 5.84118C35.361 5.69679 34.9466 5.50095 34.5041 5.39546L33.1839 5.05719C33.7359 4.69504 34.3167 4.3381 34.9246 3.98896ZM38.2295 3.6283C37.9581 2.96753 37.6348 2.35588 37.2977 1.70254C37.802 1.89596 38.3198 2.05771 38.8115 2.28048L40.2724 2.98257C39.5661 3.18454 38.8847 3.40052 38.2295 3.6283ZM40.2278 6.29144C40.3955 6.96614 40.5387 7.62626 40.6588 8.26958L39.4924 7.56219C39.2971 7.44594 39.1072 7.32021 38.9081 7.21101L38.2929 6.91693C38.6077 6.79668 38.9292 6.67931 39.2571 6.56519C39.5786 6.46249 39.8976 6.37984 40.2278 6.29144ZM43.5201 6.71236C43.3958 6.02411 43.2787 5.27503 43.0824 4.59188C43.548 4.86636 43.9581 5.22247 44.3976 5.53531C44.8242 5.86597 45.2756 6.16655 45.6791 6.52461C44.9607 6.54132 44.2162 6.63371 43.5201 6.71236ZM44.8631 9.74842L44.8809 10.7544L44.8194 11.78L44.3619 11.2735L43.8555 10.8161L42.8462 9.89727C43.4967 9.82976 44.1694 9.77953 44.8631 9.74842ZM50.1 11.2378C49.3769 11.1039 48.7011 10.9677 47.9865 10.9005C48.0177 10.2069 48.0302 9.49176 48.0224 8.75689L49.1107 9.95624C49.4686 10.36 49.7693 10.8114 50.1 11.2378ZM46.5691 13.8704C47.2231 13.9492 47.9399 14.02 48.5918 14.1689C48.4335 14.8514 48.26 15.5098 48.0731 16.1429L47.3658 14.9767C47.1384 14.5824 46.831 14.2417 46.5691 13.8704ZM53.3551 16.8238C52.6728 16.5303 52.0009 16.2636 51.3415 16.0227L51.6536 14.9826C51.7429 14.6359 51.8116 14.2922 51.8856 13.9375C52.0233 14.1697 52.1701 14.397 52.2995 14.6336L52.653 15.3628L53.3551 16.8238ZM49.7941 19.8441C49.6303 19.4208 49.5004 18.9832 49.3116 18.5701C49.9496 18.7891 50.54 19.059 51.1738 19.342C50.8682 19.9666 50.6034 20.5485 50.24 21.1311C50.1345 20.6888 49.9384 20.2744 49.7941 19.8441ZM53.4357 21.7768C53.785 21.1686 54.1271 20.5326 54.4597 19.8696L54.8646 21.4394L55.0644 22.225L55.1909 23.0251C54.9078 22.8006 54.6292 22.5825 54.3455 22.3726L53.4357 21.7768ZM51.0592 25.1334L50.8526 23.7854C51.4021 24.1504 51.958 24.5434 52.5177 24.9646C52.3199 25.2306 52.0971 25.4921 51.8577 25.7483L51.1594 26.4934L51.1263 25.8115C51.1226 25.5834 51.1028 25.357 51.0592 25.1334ZM55.6353 27.8571L55.5565 29.474C55.0954 28.9069 54.6315 28.368 54.1674 27.8571C54.6316 27.3463 55.0955 26.8074 55.5565 26.2403L55.6353 27.8571Z" fill="#A95A43"/>
<path d="M32.3777 31.4038C35.4608 28.3208 38.0677 25.2218 39.977 22.4773V33.9369C39.977 35.0561 39.0697 35.9634 37.9505 35.9634H27.4076C29.0297 34.6068 30.706 33.0755 32.3777 31.4038ZM30.8579 36.9766H26.1656C25.5334 37.4791 24.9124 37.9521 24.3059 38.394L24.1603 38.8309C23.9659 39.4141 24.4 40.0164 25.0147 40.0164H30.6215C31.2363 40.0164 31.6703 39.4141 31.4759 38.8309L30.8579 36.9766Z" fill="#A95A43"/>
<path d="M31.6245 31.1419C32.8924 29.8624 34.0775 28.5821 35.1636 27.3272C40.0713 21.657 42.96 16.5085 42.3654 14.3231C42.2946 14.0629 42.1755 13.8438 42.0035 13.6718C40.546 12.2142 35.7762 14.48 30.2025 18.9631H31.6558C35.2746 16.4348 38.2275 15.3394 39.2817 16.3937C39.8182 16.9302 39.7972 17.9592 39.3146 19.3169C39.2301 19.5545 39.1322 19.8017 39.02 20.0587C38.7093 19.865 38.3436 19.7512 37.9505 19.7512H17.6857C16.5666 19.7512 15.6592 20.6585 15.6592 21.7777V33.9366C15.6592 35.0558 16.5666 35.9631 17.6857 35.9631H25.068C24.6998 36.2393 24.3369 36.5021 23.9805 36.7512C21.6047 38.4111 19.5163 39.453 18.0634 39.6747C17.6657 39.7354 17.3159 39.7343 17.0207 39.6679C16.7516 39.6074 16.5273 39.4933 16.3546 39.3207C15.8181 38.7841 15.8391 37.7551 16.3217 36.3974C15.8912 36.1578 15.5297 35.8089 15.2753 35.388C13.3536 38.593 12.6543 41.0641 13.6328 42.0426C14.0218 42.4316 14.6475 42.5545 15.4608 42.4418C18.7417 41.9868 25.0863 37.6817 31.3645 31.4035C31.4517 31.3163 31.538 31.2291 31.6245 31.1419Z" fill="#A95A43"/>
</svg>
