<?xml version="1.0" standalone="no"?>
<!DOCTYPE svg PUBLIC "-//W3C//DTD SVG 20010904//EN"
 "http://www.w3.org/TR/2001/REC-SVG-20010904/DTD/svg10.dtd">
<svg version="1.0" xmlns="http://www.w3.org/2000/svg"
 width="1536.000000pt" height="1024.000000pt" viewBox="0 0 1536.000000 1024.000000"
 preserveAspectRatio="xMidYMid meet">

<g transform="translate(0.000000,1024.000000) scale(0.100000,-0.100000)"
fill="#000000" stroke="none">
<path d="M2000 6485 c-192 -33 -358 -99 -530 -214 -108 -71 -300 -262 -365
-361 -234 -360 -293 -809 -159 -1209 135 -404 455 -720 867 -856 347 -114 749
-73 1062 108 219 126 422 341 533 562 168 338 193 749 67 1101 -44 121 -73
178 -164 314 -194 294 -488 486 -844 550 -129 23 -347 26 -467 5z m90 -715 c6
-11 17 -17 24 -14 11 4 16 -7 22 -43 6 -38 -3 -100 -44 -303 -28 -140 -54
-277 -58 -305 -8 -57 -19 -81 -121 -261 -78 -139 -82 -149 -113 -294 -25 -118
-36 -130 -111 -130 -54 0 -60 2 -73 28 -21 40 -34 95 -50 212 -21 146 -45 261
-61 286 -8 12 -10 26 -5 34 4 7 6 19 3 27 -3 7 0 13 6 13 6 0 12 -10 12 -22 1
-20 2 -21 6 -4 3 11 -2 25 -11 31 -25 19 -44 74 -56 165 -6 47 -20 128 -32
180 -42 192 -46 216 -53 277 -10 87 -3 103 44 103 52 0 69 -22 86 -115 9 -43
35 -144 60 -224 66 -217 102 -339 120 -403 15 -55 31 -73 40 -45 2 6 18 59 36
117 54 178 147 425 180 482 17 29 51 92 76 141 24 48 48 87 53 87 5 0 14 -9
20 -20z m1070 -36 c0 -25 -9 -107 -20 -182 l-20 -137 -96 -194 c-53 -107 -103
-213 -110 -235 -48 -135 -74 -302 -76 -479 -1 -98 -3 -115 -21 -134 -24 -27
-71 -30 -121 -9 -32 13 -35 19 -51 93 -9 43 -27 125 -40 183 -13 58 -28 132
-35 165 -15 81 -61 235 -70 235 -19 0 -81 -166 -156 -418 -30 -103 -59 -191
-64 -196 -5 -5 -14 1 -22 13 l-13 21 -17 -22 -17 -23 -10 28 c-6 16 -24 110
-41 210 -16 100 -41 243 -55 317 -29 156 -30 191 -11 269 8 31 22 91 31 134 9
42 20 77 25 77 4 0 11 -16 14 -35 4 -19 13 -35 20 -35 14 0 31 -66 42 -162 6
-55 24 -82 24 -37 0 34 69 350 86 394 17 45 60 95 82 95 7 0 28 16 44 35 17
19 35 32 40 29 4 -3 8 -22 8 -43 0 -45 34 -235 56 -311 9 -30 37 -108 62 -173
41 -104 48 -116 59 -101 7 10 13 24 13 31 0 7 34 88 75 180 74 165 190 357
254 416 21 21 69 38 124 46 4 1 7 -20 7 -45z"/>
<path d="M13571 6075 c-224 -63 -386 -227 -457 -460 -24 -79 -24 -263 -1 -355
97 -373 456 -573 827 -460 116 35 242 136 319 254 92 142 126 354 82 524 -29
111 -63 184 -118 257 -86 111 -210 199 -327 232 -79 22 -260 26 -325 8z m-195
-345 c1 -8 3 -26 4 -40 1 -23 2 -23 9 -5 7 17 10 14 20 -20 6 -22 11 -49 11
-60 0 -12 4 -25 9 -30 5 -6 11 -19 13 -30 1 -11 11 -27 20 -36 14 -12 15 -18
5 -28 -9 -10 -9 -12 1 -9 9 2 19 -15 27 -47 28 -106 29 -105 53 6 13 57 35
144 50 194 32 103 49 116 82 63 19 -29 21 -43 16 -113 -4 -44 -8 -93 -11 -110
-3 -22 -2 -20 6 8 6 20 15 37 21 37 5 0 6 -4 3 -10 -3 -5 1 -10 9 -10 9 0 17
-9 17 -22 1 -13 5 11 9 52 4 41 14 89 21 105 7 17 13 34 13 38 1 4 15 17 32
28 27 17 33 17 43 5 7 -8 13 -30 13 -48 1 -32 71 -235 87 -251 4 -4 15 23 25
60 20 82 92 228 125 254 23 18 81 27 81 12 0 -5 -8 -57 -19 -118 -12 -74 -32
-141 -58 -205 -56 -131 -56 -130 -62 -265 l-6 -120 -28 -9 c-46 -17 -59 0 -82
110 -20 91 -50 195 -63 218 -3 5 -18 -37 -33 -95 -52 -199 -48 -189 -72 -189
-20 0 -24 9 -40 78 -9 42 -24 124 -32 182 -16 104 -25 136 -25 87 0 -14 -3
-34 -6 -44 -5 -15 -4 -15 5 -3 9 13 11 13 11 -2 0 -10 -4 -18 -9 -18 -9 0 -41
-55 -41 -71 0 -4 -13 -28 -30 -52 -16 -24 -32 -62 -36 -85 -9 -60 -24 -76 -62
-68 -37 9 -45 30 -61 154 -6 45 -17 95 -26 112 -8 16 -15 38 -15 49 0 24 -19
38 -30 21 -5 -8 -11 -1 -19 21 -7 20 -8 36 -2 42 5 5 7 17 5 26 -3 9 2 5 10
-9 8 -14 15 -21 16 -15 1 24 -34 164 -41 162 -4 -1 -7 2 -7 7 0 5 -6 12 -12
16 -7 4 -15 23 -19 41 -6 27 -3 37 14 51 24 21 59 19 61 -2z"/>
<path d="M3934 5628 c28 -106 71 -257 251 -888 l33 -115 108 0 108 0 37 145
c89 349 129 504 134 508 6 7 1 26 140 -498 l41 -155 112 -3 c62 -1 112 0 112
3 0 2 23 89 50 192 28 104 67 249 86 323 20 74 42 155 49 180 17 55 85 315 85
324 0 3 -47 6 -103 6 l-104 0 -13 -57 c-8 -32 -15 -62 -16 -68 -27 -116 -134
-524 -142 -545 -13 -33 -9 -46 -107 325 -19 72 -47 177 -63 235 l-29 105 -99
3 -100 3 -26 -108 c-23 -98 -126 -496 -146 -567 -8 -30 -7 -35 -107 344 -12
47 -37 140 -55 208 l-33 122 -105 0 c-103 0 -104 0 -98 -22z"/>
<path d="M5380 5135 l0 -515 340 0 340 0 0 98 0 97 -242 0 -243 0 -1 108 -2
107 219 0 219 0 0 100 0 100 -217 0 -218 0 -1 110 -1 110 243 0 244 0 0 100 0
100 -340 0 -340 0 0 -515z"/>
<path d="M6220 5134 l0 -516 278 4 c193 3 286 8 307 17 59 25 114 80 146 148
30 64 31 69 21 125 -14 77 -47 142 -94 184 -40 36 -45 44 -27 44 35 0 88 94
89 155 0 15 2 17 9 6 14 -22 22 4 20 64 -1 30 -6 55 -11 55 -5 0 -9 -15 -8
-32 4 -71 -3 -68 -9 3 -9 98 -40 161 -104 207 -61 44 -117 51 -399 52 l-218 0
0 -516z m506 283 c28 -32 31 -72 9 -123 -21 -50 -64 -65 -207 -72 l-118 -5 0
117 0 117 146 -3 c146 -3 146 -3 170 -31z m-26 -403 c65 -38 94 -110 62 -152
-26 -33 -114 -52 -244 -52 l-108 0 0 113 0 112 128 -1 c109 0 134 -3 162 -20z"/>
<path d="M7210 5628 c0 -21 -10 -118 -25 -254 -29 -260 -74 -702 -75 -726 0
-16 11 -18 94 -18 l94 0 6 28 c3 15 12 95 21 177 9 83 22 202 30 265 8 63 16
132 17 153 1 20 5 37 8 37 11 0 53 -105 141 -350 50 -140 96 -267 101 -282 10
-28 11 -28 97 -28 l88 0 75 218 c42 119 90 264 108 321 40 124 43 120 59 -65
7 -71 14 -136 16 -144 4 -13 35 -309 35 -331 0 -5 45 -9 101 -9 l101 0 -6 63
c-17 166 -28 272 -41 382 -8 66 -19 174 -25 240 -7 66 -16 150 -21 187 -5 37
-9 87 -9 113 l0 46 -131 -3 -132 -3 -101 -305 c-55 -168 -104 -306 -108 -308
-5 -2 -8 -11 -9 -20 -1 -44 -41 53 -139 332 l-105 301 -132 3 c-133 3 -133 2
-133 -20z"/>
<path d="M8719 5623 c-6 -15 -25 -71 -44 -123 -18 -52 -68 -192 -110 -310
-128 -360 -195 -553 -195 -561 0 -5 49 -9 109 -9 l109 0 18 46 c9 25 25 73 34
107 l17 62 188 0 187 0 40 -107 40 -108 110 0 c101 0 110 1 103 18 -6 17 -78
222 -236 677 -44 127 -88 253 -98 280 l-19 50 -121 3 -121 3 -11 -28z m195
-397 c31 -99 56 -183 56 -188 0 -4 -56 -8 -125 -8 -69 0 -125 2 -125 5 0 2 13
37 28 77 16 40 46 123 68 185 21 61 39 111 40 110 1 -1 27 -83 58 -181z"/>
<path d="M9410 5141 l0 -510 100 -3 100 -3 0 178 0 177 108 0 107 0 100 -175
100 -174 113 -1 c61 0 112 3 112 6 0 3 -43 79 -95 169 -130 225 -124 206 -86
254 17 21 43 66 58 98 24 50 27 71 28 158 0 163 -48 268 -144 313 -30 14 -82
17 -318 20 l-283 3 0 -510z m515 287 c33 -38 40 -96 21 -162 -23 -78 -41 -86
-206 -86 l-130 0 0 141 0 140 146 -3 c144 -3 146 -3 169 -30z"/>
<path d="M10250 5644 c0 -3 67 -198 149 -433 82 -234 162 -463 178 -509 l28
-83 119 3 119 3 54 160 c31 88 110 319 177 513 l123 352 -108 0 -107 0 -116
-349 c-130 -388 -138 -411 -146 -411 -3 0 -19 44 -37 98 -17 53 -68 203 -113
332 -45 129 -89 256 -98 283 l-16 47 -103 0 c-57 0 -103 -3 -103 -6z"/>
<path d="M11280 5137 l0 -513 338 1 337 0 3 93 3 92 -246 0 -245 0 0 110 0
110 213 0 c118 0 216 2 218 4 2 2 3 47 1 100 l-3 96 -215 0 -214 0 0 110 0
110 240 0 240 0 0 100 0 100 -335 0 -335 0 0 -513z"/>
<path d="M12100 5140 l0 -510 335 0 335 0 0 95 0 95 -245 0 -245 0 2 415 3
415 -92 0 -93 0 0 -510z"/>
</g>
</svg>
