<svg width="50" height="57" viewBox="0 0 50 57" fill="none" xmlns="http://www.w3.org/2000/svg">
<path d="M49.2116 46.7775C45.4707 51.119 40.4876 54.208 34.9353 55.6275C29.3829 57.047 23.5287 56.7286 18.1631 54.7152C12.7975 52.7018 8.17895 49.0905 4.93098 44.3689C1.68302 39.6472 -0.0378835 34.0426 0.000632362 28.3118C0.0391483 22.581 1.83523 17.0001 5.14636 12.3225C8.4575 7.64493 13.1242 4.09602 18.5164 2.15496C23.9086 0.213897 29.7665 -0.025826 35.2993 1.46816C40.832 2.96214 45.7731 6.11787 49.4554 10.5093L48.4983 11.3118C44.9803 7.11627 40.2596 4.1013 34.9737 2.67396C29.6877 1.24662 24.0911 1.47565 18.9394 3.33013C13.7878 5.18461 9.32923 8.57521 6.1658 13.0441C3.00236 17.5131 1.2864 22.8451 1.2496 28.3202C1.2128 33.7954 2.85694 39.15 5.96002 43.661C9.06311 48.172 13.4757 51.6223 18.6019 53.5458C23.7282 55.4694 29.3213 55.7736 34.6259 54.4174C39.9306 53.0613 44.6914 50.11 48.2654 45.9622L49.2116 46.7775Z" fill="#CE7D63"/>
</svg>
